<svg xmlns="http://www.w3.org/2000/svg" viewBox="0 0 100 1000"><rect width="100" height="1000" fill="#305"/><g><circle cx="50" cy="0" r="50" fill="#305"/><g fill="#3a015d"><circle cx="0" cy="50" r="50"/><circle cx="100" cy="50" r="50"/></g><circle cx="50" cy="100" r="50" fill="#410165"/><g fill="#48026e"><circle cx="0" cy="150" r="50"/><circle cx="100" cy="150" r="50"/></g><circle cx="50" cy="200" r="50" fill="#500376"/><g fill="#57047e"><circle cx="0" cy="250" r="50"/><circle cx="100" cy="250" r="50"/></g><circle cx="50" cy="300" r="50" fill="#5f0587"/><g fill="#67068f"><circle cx="0" cy="350" r="50"/><circle cx="100" cy="350" r="50"/></g><circle cx="50" cy="400" r="50" fill="#6f0798"/><g fill="#7707a0"><circle cx="0" cy="450" r="50"/><circle cx="100" cy="450" r="50"/></g><circle cx="50" cy="500" r="50" fill="#8008a9"/><g fill="#8909b1"><circle cx="0" cy="550" r="50"/><circle cx="100" cy="550" r="50"/></g><circle cx="50" cy="600" r="50" fill="#9109ba"/><g fill="#9a09c3"><circle cx="0" cy="650" r="50"/><circle cx="100" cy="650" r="50"/></g><circle cx="50" cy="700" r="50" fill="#a309cb"/><g fill="#ad09d4"><circle cx="0" cy="750" r="50"/><circle cx="100" cy="750" r="50"/></g><circle cx="50" cy="800" r="50" fill="#b608dc"/><g fill="#c007e5"><circle cx="0" cy="850" r="50"/><circle cx="100" cy="850" r="50"/></g><circle cx="50" cy="900" r="50" fill="#c905ee"/><g fill="#d303f6"><circle cx="0" cy="950" r="50"/><circle cx="100" cy="950" r="50"/></g><circle cx="50" cy="1000" r="50" fill="#D0F"/></g></svg>