<svg xmlns="http://www.w3.org/2000/svg" version="1.1" xmlns:xlink="http://www.w3.org/1999/xlink" xmlns:svgjs="http://svgjs.com/svgjs" width="500" height="560" preserveAspectRatio="none" viewBox="0 0 500 560"><g mask="url(&quot;#SvgjsMask1044&quot;)" fill="none"><rect width="500" height="560" x="0" y="0" fill="url(#SvgjsLinearGradient1045)"></rect><path d="M-44.95 374.89L-44.95 374.89" stroke="rgba(0, 0, 0, 1)" stroke-width="1.5"></path><path d="M-44.95 374.89L33.97 390.41" stroke="rgba(0, 0, 0, 1)" stroke-width="1.5"></path><path d="M-44.95 374.89L-18.91 456.14" stroke="rgba(0, 0, 0, 1)" stroke-width="1.5"></path><path d="M-44.95 374.89L43.16 459.43" stroke="rgba(0, 0, 0, 1)" stroke-width="1.5"></path><path d="M-44.95 374.89L-30.3 508.48" stroke="rgba(0, 0, 0, 1)" stroke-width="1.5"></path><path d="M-44.95 374.89L97.1 453.14" stroke="rgba(0, 0, 0, 1)" stroke-width="1.5"></path><path d="M-18.91 456.14L-18.91 456.14" stroke="rgba(0, 0, 0, 1)" stroke-width="1.5"></path><path d="M-18.91 456.14L-30.3 508.48" stroke="rgba(0, 0, 0, 1)" stroke-width="1.5"></path><path d="M-18.91 456.14L43.16 459.43" stroke="rgba(0, 0, 0, 1)" stroke-width="1.5"></path><path d="M-30.3 508.48L-30.3 508.48" stroke="rgba(0, 0, 0, 1)" stroke-width="1.5"></path><path d="M-30.3 508.48L19.75 530.18" stroke="rgba(0, 0, 0, 1)" stroke-width="1.5"></path><path d="M-28 593.89L-28 593.89" stroke="rgba(0, 0, 0, 1)" stroke-width="1.5"></path><path d="M-28 593.89L31.63 610.48" stroke="rgba(0, 0, 0, 1)" stroke-width="1.5"></path><path d="M-28 593.89L19.75 530.18" stroke="rgba(0, 0, 0, 1)" stroke-width="1.5"></path><path d="M-28 593.89L-30.3 508.48" stroke="rgba(0, 0, 0, 1)" stroke-width="1.5"></path><path d="M-28 593.89L106.14 603.3" stroke="rgba(0, 0, 0, 1)" stroke-width="1.5"></path><path d="M33.97 390.41L33.97 390.41" stroke="rgba(0, 0, 0, 1)" stroke-width="1.5"></path><path d="M33.97 390.41L43.16 459.43" stroke="rgba(0, 0, 0, 1)" stroke-width="1.5"></path><path d="M43.16 459.43L43.16 459.43" stroke="rgba(0, 0, 0, 1)" stroke-width="1.5"></path><path d="M43.16 459.43L97.1 453.14" stroke="rgba(0, 0, 0, 1)" stroke-width="1.5"></path><path d="M19.75 530.18L19.75 530.18" stroke="rgba(0, 0, 0, 1)" stroke-width="1.5"></path><path d="M19.75 530.18L43.16 459.43" stroke="rgba(0, 0, 0, 1)" stroke-width="1.5"></path><path d="M31.63 610.48L31.63 610.48" stroke="rgba(0, 0, 0, 1)" stroke-width="1.5"></path><path d="M31.63 610.48L106.14 603.3" stroke="rgba(0, 0, 0, 1)" stroke-width="1.5"></path><path d="M31.63 610.48L19.75 530.18" stroke="rgba(0, 0, 0, 1)" stroke-width="1.5"></path><path d="M31.63 610.48L107.1 524.31" stroke="rgba(0, 0, 0, 1)" stroke-width="1.5"></path><path d="M31.63 610.48L-30.3 508.48" stroke="rgba(0, 0, 0, 1)" stroke-width="1.5"></path><path d="M116.55 392.53L116.55 392.53" stroke="rgba(0, 0, 0, 1)" stroke-width="1.5"></path><path d="M116.55 392.53L97.1 453.14" stroke="rgba(0, 0, 0, 1)" stroke-width="1.5"></path><path d="M116.55 392.53L180.63 378.96" stroke="rgba(0, 0, 0, 1)" stroke-width="1.5"></path><path d="M116.55 392.53L33.97 390.41" stroke="rgba(0, 0, 0, 1)" stroke-width="1.5"></path><path d="M116.55 392.53L162 461.98" stroke="rgba(0, 0, 0, 1)" stroke-width="1.5"></path><path d="M97.1 453.14L97.1 453.14" stroke="rgba(0, 0, 0, 1)" stroke-width="1.5"></path><path d="M97.1 453.14L162 461.98" stroke="rgba(0, 0, 0, 1)" stroke-width="1.5"></path><path d="M107.1 524.31L107.1 524.31" stroke="rgba(0, 0, 0, 1)" stroke-width="1.5"></path><path d="M107.1 524.31L97.1 453.14" stroke="rgba(0, 0, 0, 1)" stroke-width="1.5"></path><path d="M106.14 603.3L106.14 603.3" stroke="rgba(0, 0, 0, 1)" stroke-width="1.5"></path><path d="M106.14 603.3L174.42 607.7" stroke="rgba(0, 0, 0, 1)" stroke-width="1.5"></path><path d="M171.78 319.81L171.78 319.81" stroke="rgba(0, 0, 0, 1)" stroke-width="1.5"></path><path d="M171.78 319.81L180.63 378.96" stroke="rgba(0, 0, 0, 1)" stroke-width="1.5"></path><path d="M171.78 319.81L256.97 319.25" stroke="rgba(0, 0, 0, 1)" stroke-width="1.5"></path><path d="M171.78 319.81L116.55 392.53" stroke="rgba(0, 0, 0, 1)" stroke-width="1.5"></path><path d="M180.63 378.96L180.63 378.96" stroke="rgba(0, 0, 0, 1)" stroke-width="1.5"></path><path d="M180.63 378.96L236.21 389.95" stroke="rgba(0, 0, 0, 1)" stroke-width="1.5"></path><path d="M180.63 378.96L162 461.98" stroke="rgba(0, 0, 0, 1)" stroke-width="1.5"></path><path d="M180.63 378.96L256.97 319.25" stroke="rgba(0, 0, 0, 1)" stroke-width="1.5"></path><path d="M180.63 378.96L258.24 445.44" stroke="rgba(0, 0, 0, 1)" stroke-width="1.5"></path><path d="M162 461.98L162 461.98" stroke="rgba(0, 0, 0, 1)" stroke-width="1.5"></path><path d="M162 461.98L107.1 524.31" stroke="rgba(0, 0, 0, 1)" stroke-width="1.5"></path><path d="M174.42 607.7L174.42 607.7" stroke="rgba(0, 0, 0, 1)" stroke-width="1.5"></path><path d="M174.42 607.7L261.01 587.27" stroke="rgba(0, 0, 0, 1)" stroke-width="1.5"></path><path d="M174.42 607.7L245.69 539.01" stroke="rgba(0, 0, 0, 1)" stroke-width="1.5"></path><path d="M256.97 319.25L256.97 319.25" stroke="rgba(0, 0, 0, 1)" stroke-width="1.5"></path><path d="M256.97 319.25L236.21 389.95" stroke="rgba(0, 0, 0, 1)" stroke-width="1.5"></path><path d="M256.97 319.25L310.48 232.42" stroke="rgba(0, 0, 0, 1)" stroke-width="1.5"></path><path d="M256.97 319.25L258.24 445.44" stroke="rgba(0, 0, 0, 1)" stroke-width="1.5"></path><path d="M236.21 389.95L236.21 389.95" stroke="rgba(0, 0, 0, 1)" stroke-width="1.5"></path><path d="M236.21 389.95L258.24 445.44" stroke="rgba(0, 0, 0, 1)" stroke-width="1.5"></path><path d="M236.21 389.95L303.83 455.56" stroke="rgba(0, 0, 0, 1)" stroke-width="1.5"></path><path d="M236.21 389.95L171.78 319.81" stroke="rgba(0, 0, 0, 1)" stroke-width="1.5"></path><path d="M258.24 445.44L258.24 445.44" stroke="rgba(0, 0, 0, 1)" stroke-width="1.5"></path><path d="M258.24 445.44L303.83 455.56" stroke="rgba(0, 0, 0, 1)" stroke-width="1.5"></path><path d="M245.69 539.01L245.69 539.01" stroke="rgba(0, 0, 0, 1)" stroke-width="1.5"></path><path d="M245.69 539.01L261.01 587.27" stroke="rgba(0, 0, 0, 1)" stroke-width="1.5"></path><path d="M245.69 539.01L301.97 524.03" stroke="rgba(0, 0, 0, 1)" stroke-width="1.5"></path><path d="M245.69 539.01L258.24 445.44" stroke="rgba(0, 0, 0, 1)" stroke-width="1.5"></path><path d="M245.69 539.01L316.34 604.76" stroke="rgba(0, 0, 0, 1)" stroke-width="1.5"></path><path d="M245.69 539.01L303.83 455.56" stroke="rgba(0, 0, 0, 1)" stroke-width="1.5"></path><path d="M261.01 587.27L261.01 587.27" stroke="rgba(0, 0, 0, 1)" stroke-width="1.5"></path><path d="M329.35 -42.31L329.35 -42.31" stroke="rgba(0, 0, 0, 1)" stroke-width="1.5"></path><path d="M329.35 -42.31L383.89 -45.01" stroke="rgba(0, 0, 0, 1)" stroke-width="1.5"></path><path d="M329.35 -42.31L307.85 29.52" stroke="rgba(0, 0, 0, 1)" stroke-width="1.5"></path><path d="M329.35 -42.31L376.27 18.34" stroke="rgba(0, 0, 0, 1)" stroke-width="1.5"></path><path d="M329.35 -42.31L464.19 -48.69" stroke="rgba(0, 0, 0, 1)" stroke-width="1.5"></path><path d="M307.85 29.52L307.85 29.52" stroke="rgba(0, 0, 0, 1)" stroke-width="1.5"></path><path d="M307.85 29.52L376.27 18.34" stroke="rgba(0, 0, 0, 1)" stroke-width="1.5"></path><path d="M299.03 103.02L299.03 103.02" stroke="rgba(0, 0, 0, 1)" stroke-width="1.5"></path><path d="M299.03 103.02L320.07 169.86" stroke="rgba(0, 0, 0, 1)" stroke-width="1.5"></path><path d="M299.03 103.02L307.85 29.52" stroke="rgba(0, 0, 0, 1)" stroke-width="1.5"></path><path d="M299.03 103.02L392.48 104.39" stroke="rgba(0, 0, 0, 1)" stroke-width="1.5"></path><path d="M320.07 169.86L320.07 169.86" stroke="rgba(0, 0, 0, 1)" stroke-width="1.5"></path><path d="M320.07 169.86L373.17 178.74" stroke="rgba(0, 0, 0, 1)" stroke-width="1.5"></path><path d="M320.07 169.86L310.48 232.42" stroke="rgba(0, 0, 0, 1)" stroke-width="1.5"></path><path d="M320.07 169.86L387.85 234.73" stroke="rgba(0, 0, 0, 1)" stroke-width="1.5"></path><path d="M310.48 232.42L310.48 232.42" stroke="rgba(0, 0, 0, 1)" stroke-width="1.5"></path><path d="M310.48 232.42L387.85 234.73" stroke="rgba(0, 0, 0, 1)" stroke-width="1.5"></path><path d="M310.48 232.42L373.17 178.74" stroke="rgba(0, 0, 0, 1)" stroke-width="1.5"></path><path d="M303.83 455.56L303.83 455.56" stroke="rgba(0, 0, 0, 1)" stroke-width="1.5"></path><path d="M303.83 455.56L301.97 524.03" stroke="rgba(0, 0, 0, 1)" stroke-width="1.5"></path><path d="M303.83 455.56L392.31 463.39" stroke="rgba(0, 0, 0, 1)" stroke-width="1.5"></path><path d="M301.97 524.03L301.97 524.03" stroke="rgba(0, 0, 0, 1)" stroke-width="1.5"></path><path d="M316.34 604.76L316.34 604.76" stroke="rgba(0, 0, 0, 1)" stroke-width="1.5"></path><path d="M316.34 604.76L261.01 587.27" stroke="rgba(0, 0, 0, 1)" stroke-width="1.5"></path><path d="M316.34 604.76L301.97 524.03" stroke="rgba(0, 0, 0, 1)" stroke-width="1.5"></path><path d="M316.34 604.76L401.04 599.98" stroke="rgba(0, 0, 0, 1)" stroke-width="1.5"></path><path d="M383.89 -45.01L383.89 -45.01" stroke="rgba(0, 0, 0, 1)" stroke-width="1.5"></path><path d="M383.89 -45.01L376.27 18.34" stroke="rgba(0, 0, 0, 1)" stroke-width="1.5"></path><path d="M383.89 -45.01L464.19 -48.69" stroke="rgba(0, 0, 0, 1)" stroke-width="1.5"></path><path d="M376.27 18.34L376.27 18.34" stroke="rgba(0, 0, 0, 1)" stroke-width="1.5"></path><path d="M392.48 104.39L392.48 104.39" stroke="rgba(0, 0, 0, 1)" stroke-width="1.5"></path><path d="M392.48 104.39L464.86 108.51" stroke="rgba(0, 0, 0, 1)" stroke-width="1.5"></path><path d="M392.48 104.39L373.17 178.74" stroke="rgba(0, 0, 0, 1)" stroke-width="1.5"></path><path d="M392.48 104.39L376.27 18.34" stroke="rgba(0, 0, 0, 1)" stroke-width="1.5"></path><path d="M392.48 104.39L320.07 169.86" stroke="rgba(0, 0, 0, 1)" stroke-width="1.5"></path><path d="M392.48 104.39L466.87 30.85" stroke="rgba(0, 0, 0, 1)" stroke-width="1.5"></path><path d="M373.17 178.74L373.17 178.74" stroke="rgba(0, 0, 0, 1)" stroke-width="1.5"></path><path d="M373.17 178.74L387.85 234.73" stroke="rgba(0, 0, 0, 1)" stroke-width="1.5"></path><path d="M387.85 234.73L387.85 234.73" stroke="rgba(0, 0, 0, 1)" stroke-width="1.5"></path><path d="M387.85 234.73L456.25 250.46" stroke="rgba(0, 0, 0, 1)" stroke-width="1.5"></path><path d="M395.36 324.44L395.36 324.44" stroke="rgba(0, 0, 0, 1)" stroke-width="1.5"></path><path d="M395.36 324.44L371.47 383.69" stroke="rgba(0, 0, 0, 1)" stroke-width="1.5"></path><path d="M395.36 324.44L461.65 311.4" stroke="rgba(0, 0, 0, 1)" stroke-width="1.5"></path><path d="M395.36 324.44L468.7 373.12" stroke="rgba(0, 0, 0, 1)" stroke-width="1.5"></path><path d="M395.36 324.44L387.85 234.73" stroke="rgba(0, 0, 0, 1)" stroke-width="1.5"></path><path d="M395.36 324.44L456.25 250.46" stroke="rgba(0, 0, 0, 1)" stroke-width="1.5"></path><path d="M395.36 324.44L515.29 313.75" stroke="rgba(0, 0, 0, 1)" stroke-width="1.5"></path><path d="M371.47 383.69L371.47 383.69" stroke="rgba(0, 0, 0, 1)" stroke-width="1.5"></path><path d="M371.47 383.69L392.31 463.39" stroke="rgba(0, 0, 0, 1)" stroke-width="1.5"></path><path d="M371.47 383.69L468.7 373.12" stroke="rgba(0, 0, 0, 1)" stroke-width="1.5"></path><path d="M371.47 383.69L303.83 455.56" stroke="rgba(0, 0, 0, 1)" stroke-width="1.5"></path><path d="M371.47 383.69L458.78 457.03" stroke="rgba(0, 0, 0, 1)" stroke-width="1.5"></path><path d="M371.47 383.69L461.65 311.4" stroke="rgba(0, 0, 0, 1)" stroke-width="1.5"></path><path d="M392.31 463.39L392.31 463.39" stroke="rgba(0, 0, 0, 1)" stroke-width="1.5"></path><path d="M392.31 463.39L458.78 457.03" stroke="rgba(0, 0, 0, 1)" stroke-width="1.5"></path><path d="M392.31 463.39L395.38 533.7" stroke="rgba(0, 0, 0, 1)" stroke-width="1.5"></path><path d="M392.31 463.39L441.08 526.42" stroke="rgba(0, 0, 0, 1)" stroke-width="1.5"></path><path d="M395.38 533.7L395.38 533.7" stroke="rgba(0, 0, 0, 1)" stroke-width="1.5"></path><path d="M395.38 533.7L441.08 526.42" stroke="rgba(0, 0, 0, 1)" stroke-width="1.5"></path><path d="M395.38 533.7L401.04 599.98" stroke="rgba(0, 0, 0, 1)" stroke-width="1.5"></path><path d="M395.38 533.7L301.97 524.03" stroke="rgba(0, 0, 0, 1)" stroke-width="1.5"></path><path d="M395.38 533.7L458.78 457.03" stroke="rgba(0, 0, 0, 1)" stroke-width="1.5"></path><path d="M395.38 533.7L316.34 604.76" stroke="rgba(0, 0, 0, 1)" stroke-width="1.5"></path><path d="M401.04 599.98L401.04 599.98" stroke="rgba(0, 0, 0, 1)" stroke-width="1.5"></path><path d="M401.04 599.98L441.08 526.42" stroke="rgba(0, 0, 0, 1)" stroke-width="1.5"></path><path d="M464.19 -48.69L464.19 -48.69" stroke="rgba(0, 0, 0, 1)" stroke-width="1.5"></path><path d="M464.19 -48.69L537.18 -23.78" stroke="rgba(0, 0, 0, 1)" stroke-width="1.5"></path><path d="M464.19 -48.69L466.87 30.85" stroke="rgba(0, 0, 0, 1)" stroke-width="1.5"></path><path d="M466.87 30.85L466.87 30.85" stroke="rgba(0, 0, 0, 1)" stroke-width="1.5"></path><path d="M466.87 30.85L541.51 29.8" stroke="rgba(0, 0, 0, 1)" stroke-width="1.5"></path><path d="M466.87 30.85L464.86 108.51" stroke="rgba(0, 0, 0, 1)" stroke-width="1.5"></path><path d="M464.86 108.51L464.86 108.51" stroke="rgba(0, 0, 0, 1)" stroke-width="1.5"></path><path d="M464.86 108.51L469.71 176.18" stroke="rgba(0, 0, 0, 1)" stroke-width="1.5"></path><path d="M464.86 108.51L538.06 115.8" stroke="rgba(0, 0, 0, 1)" stroke-width="1.5"></path><path d="M464.86 108.51L519.28 191.48" stroke="rgba(0, 0, 0, 1)" stroke-width="1.5"></path><path d="M469.71 176.18L469.71 176.18" stroke="rgba(0, 0, 0, 1)" stroke-width="1.5"></path><path d="M469.71 176.18L519.28 191.48" stroke="rgba(0, 0, 0, 1)" stroke-width="1.5"></path><path d="M469.71 176.18L456.25 250.46" stroke="rgba(0, 0, 0, 1)" stroke-width="1.5"></path><path d="M469.71 176.18L517.31 241.39" stroke="rgba(0, 0, 0, 1)" stroke-width="1.5"></path><path d="M456.25 250.46L456.25 250.46" stroke="rgba(0, 0, 0, 1)" stroke-width="1.5"></path><path d="M456.25 250.46L461.65 311.4" stroke="rgba(0, 0, 0, 1)" stroke-width="1.5"></path><path d="M456.25 250.46L517.31 241.39" stroke="rgba(0, 0, 0, 1)" stroke-width="1.5"></path><path d="M461.65 311.4L461.65 311.4" stroke="rgba(0, 0, 0, 1)" stroke-width="1.5"></path><path d="M461.65 311.4L515.29 313.75" stroke="rgba(0, 0, 0, 1)" stroke-width="1.5"></path><path d="M461.65 311.4L468.7 373.12" stroke="rgba(0, 0, 0, 1)" stroke-width="1.5"></path><path d="M468.7 373.12L468.7 373.12" stroke="rgba(0, 0, 0, 1)" stroke-width="1.5"></path><path d="M468.7 373.12L535.27 399.57" stroke="rgba(0, 0, 0, 1)" stroke-width="1.5"></path><path d="M468.7 373.12L515.29 313.75" stroke="rgba(0, 0, 0, 1)" stroke-width="1.5"></path><path d="M468.7 373.12L458.78 457.03" stroke="rgba(0, 0, 0, 1)" stroke-width="1.5"></path><path d="M458.78 457.03L458.78 457.03" stroke="rgba(0, 0, 0, 1)" stroke-width="1.5"></path><path d="M458.78 457.03L441.08 526.42" stroke="rgba(0, 0, 0, 1)" stroke-width="1.5"></path><path d="M458.78 457.03L538.91 449.78" stroke="rgba(0, 0, 0, 1)" stroke-width="1.5"></path><path d="M458.78 457.03L524.48 521.94" stroke="rgba(0, 0, 0, 1)" stroke-width="1.5"></path><path d="M458.78 457.03L535.27 399.57" stroke="rgba(0, 0, 0, 1)" stroke-width="1.5"></path><path d="M441.08 526.42L441.08 526.42" stroke="rgba(0, 0, 0, 1)" stroke-width="1.5"></path><path d="M537.18 -23.78L537.18 -23.78" stroke="rgba(0, 0, 0, 1)" stroke-width="1.5"></path><path d="M537.18 -23.78L541.51 29.8" stroke="rgba(0, 0, 0, 1)" stroke-width="1.5"></path><path d="M537.18 -23.78L598.61 -41.96" stroke="rgba(0, 0, 0, 1)" stroke-width="1.5"></path><path d="M537.18 -23.78L593.9 36.79" stroke="rgba(0, 0, 0, 1)" stroke-width="1.5"></path><path d="M537.18 -23.78L466.87 30.85" stroke="rgba(0, 0, 0, 1)" stroke-width="1.5"></path><path d="M541.51 29.8L541.51 29.8" stroke="rgba(0, 0, 0, 1)" stroke-width="1.5"></path><path d="M541.51 29.8L593.9 36.79" stroke="rgba(0, 0, 0, 1)" stroke-width="1.5"></path><path d="M541.51 29.8L538.06 115.8" stroke="rgba(0, 0, 0, 1)" stroke-width="1.5"></path><path d="M538.06 115.8L538.06 115.8" stroke="rgba(0, 0, 0, 1)" stroke-width="1.5"></path><path d="M538.06 115.8L602.16 99.63" stroke="rgba(0, 0, 0, 1)" stroke-width="1.5"></path><path d="M538.06 115.8L582.9 165.07" stroke="rgba(0, 0, 0, 1)" stroke-width="1.5"></path><path d="M538.06 115.8L519.28 191.48" stroke="rgba(0, 0, 0, 1)" stroke-width="1.5"></path><path d="M519.28 191.48L519.28 191.48" stroke="rgba(0, 0, 0, 1)" stroke-width="1.5"></path><path d="M519.28 191.48L517.31 241.39" stroke="rgba(0, 0, 0, 1)" stroke-width="1.5"></path><path d="M519.28 191.48L582.9 165.07" stroke="rgba(0, 0, 0, 1)" stroke-width="1.5"></path><path d="M519.28 191.48L456.25 250.46" stroke="rgba(0, 0, 0, 1)" stroke-width="1.5"></path><path d="M517.31 241.39L517.31 241.39" stroke="rgba(0, 0, 0, 1)" stroke-width="1.5"></path><path d="M517.31 241.39L515.29 313.75" stroke="rgba(0, 0, 0, 1)" stroke-width="1.5"></path><path d="M517.31 241.39L461.65 311.4" stroke="rgba(0, 0, 0, 1)" stroke-width="1.5"></path><path d="M515.29 313.75L515.29 313.75" stroke="rgba(0, 0, 0, 1)" stroke-width="1.5"></path><path d="M535.27 399.57L535.27 399.57" stroke="rgba(0, 0, 0, 1)" stroke-width="1.5"></path><path d="M535.27 399.57L538.91 449.78" stroke="rgba(0, 0, 0, 1)" stroke-width="1.5"></path><path d="M535.27 399.57L591.58 380.82" stroke="rgba(0, 0, 0, 1)" stroke-width="1.5"></path><path d="M538.91 449.78L538.91 449.78" stroke="rgba(0, 0, 0, 1)" stroke-width="1.5"></path><path d="M538.91 449.78L588.92 442.89" stroke="rgba(0, 0, 0, 1)" stroke-width="1.5"></path><path d="M538.91 449.78L524.48 521.94" stroke="rgba(0, 0, 0, 1)" stroke-width="1.5"></path><path d="M538.91 449.78L591.58 380.82" stroke="rgba(0, 0, 0, 1)" stroke-width="1.5"></path><path d="M538.91 449.78L592.15 531.18" stroke="rgba(0, 0, 0, 1)" stroke-width="1.5"></path><path d="M524.48 521.94L524.48 521.94" stroke="rgba(0, 0, 0, 1)" stroke-width="1.5"></path><path d="M524.48 521.94L592.15 531.18" stroke="rgba(0, 0, 0, 1)" stroke-width="1.5"></path><path d="M534.56 600.25L534.56 600.25" stroke="rgba(0, 0, 0, 1)" stroke-width="1.5"></path><path d="M534.56 600.25L587.72 604.78" stroke="rgba(0, 0, 0, 1)" stroke-width="1.5"></path><path d="M534.56 600.25L524.48 521.94" stroke="rgba(0, 0, 0, 1)" stroke-width="1.5"></path><path d="M534.56 600.25L592.15 531.18" stroke="rgba(0, 0, 0, 1)" stroke-width="1.5"></path><path d="M534.56 600.25L441.08 526.42" stroke="rgba(0, 0, 0, 1)" stroke-width="1.5"></path><path d="M598.61 -41.96L598.61 -41.96" stroke="rgba(0, 0, 0, 1)" stroke-width="1.5"></path><path d="M598.61 -41.96L593.9 36.79" stroke="rgba(0, 0, 0, 1)" stroke-width="1.5"></path><path d="M598.61 -41.96L541.51 29.8" stroke="rgba(0, 0, 0, 1)" stroke-width="1.5"></path><path d="M598.61 -41.96L464.19 -48.69" stroke="rgba(0, 0, 0, 1)" stroke-width="1.5"></path><path d="M598.61 -41.96L602.16 99.63" stroke="rgba(0, 0, 0, 1)" stroke-width="1.5"></path><path d="M593.9 36.79L593.9 36.79" stroke="rgba(0, 0, 0, 1)" stroke-width="1.5"></path><path d="M602.16 99.63L602.16 99.63" stroke="rgba(0, 0, 0, 1)" stroke-width="1.5"></path><path d="M602.16 99.63L593.9 36.79" stroke="rgba(0, 0, 0, 1)" stroke-width="1.5"></path><path d="M582.9 165.07L582.9 165.07" stroke="rgba(0, 0, 0, 1)" stroke-width="1.5"></path><path d="M582.9 165.07L602.16 99.63" stroke="rgba(0, 0, 0, 1)" stroke-width="1.5"></path><path d="M582.9 165.07L608.7 243.25" stroke="rgba(0, 0, 0, 1)" stroke-width="1.5"></path><path d="M608.7 243.25L608.7 243.25" stroke="rgba(0, 0, 0, 1)" stroke-width="1.5"></path><path d="M608.7 243.25L583.15 312.51" stroke="rgba(0, 0, 0, 1)" stroke-width="1.5"></path><path d="M608.7 243.25L517.31 241.39" stroke="rgba(0, 0, 0, 1)" stroke-width="1.5"></path><path d="M608.7 243.25L519.28 191.48" stroke="rgba(0, 0, 0, 1)" stroke-width="1.5"></path><path d="M608.7 243.25L515.29 313.75" stroke="rgba(0, 0, 0, 1)" stroke-width="1.5"></path><path d="M583.15 312.51L583.15 312.51" stroke="rgba(0, 0, 0, 1)" stroke-width="1.5"></path><path d="M583.15 312.51L515.29 313.75" stroke="rgba(0, 0, 0, 1)" stroke-width="1.5"></path><path d="M583.15 312.51L591.58 380.82" stroke="rgba(0, 0, 0, 1)" stroke-width="1.5"></path><path d="M583.15 312.51L517.31 241.39" stroke="rgba(0, 0, 0, 1)" stroke-width="1.5"></path><path d="M583.15 312.51L535.27 399.57" stroke="rgba(0, 0, 0, 1)" stroke-width="1.5"></path><path d="M583.15 312.51L461.65 311.4" stroke="rgba(0, 0, 0, 1)" stroke-width="1.5"></path><path d="M591.58 380.82L591.58 380.82" stroke="rgba(0, 0, 0, 1)" stroke-width="1.5"></path><path d="M591.58 380.82L588.92 442.89" stroke="rgba(0, 0, 0, 1)" stroke-width="1.5"></path><path d="M591.58 380.82L515.29 313.75" stroke="rgba(0, 0, 0, 1)" stroke-width="1.5"></path><path d="M588.92 442.89L588.92 442.89" stroke="rgba(0, 0, 0, 1)" stroke-width="1.5"></path><path d="M588.92 442.89L535.27 399.57" stroke="rgba(0, 0, 0, 1)" stroke-width="1.5"></path><path d="M588.92 442.89L592.15 531.18" stroke="rgba(0, 0, 0, 1)" stroke-width="1.5"></path><path d="M588.92 442.89L524.48 521.94" stroke="rgba(0, 0, 0, 1)" stroke-width="1.5"></path><path d="M588.92 442.89L583.15 312.51" stroke="rgba(0, 0, 0, 1)" stroke-width="1.5"></path><path d="M592.15 531.18L592.15 531.18" stroke="rgba(0, 0, 0, 1)" stroke-width="1.5"></path><path d="M592.15 531.18L587.72 604.78" stroke="rgba(0, 0, 0, 1)" stroke-width="1.5"></path><path d="M587.72 604.78L587.72 604.78" stroke="rgba(0, 0, 0, 1)" stroke-width="1.5"></path><path d="M587.72 604.78L524.48 521.94" stroke="rgba(0, 0, 0, 1)" stroke-width="1.5"></path><path d="M587.72 604.78L588.92 442.89" stroke="rgba(0, 0, 0, 1)" stroke-width="1.5"></path><circle r="5" cx="-44.95" cy="374.89" fill="rgba(0, 0, 0, 1)"></circle><circle r="5" cx="-18.91" cy="456.14" fill="rgba(0, 0, 0, 1)"></circle><circle r="5" cx="-30.3" cy="508.48" fill="rgba(0, 0, 0, 1)"></circle><circle r="5" cx="-28" cy="593.89" fill="rgba(0, 0, 0, 1)"></circle><circle r="5" cx="33.97" cy="390.41" fill="rgba(0, 0, 0, 1)"></circle><circle r="5" cx="43.16" cy="459.43" fill="rgba(0, 0, 0, 1)"></circle><circle r="5" cx="19.75" cy="530.18" fill="rgba(0, 0, 0, 1)"></circle><circle r="5" cx="31.63" cy="610.48" fill="rgba(0, 0, 0, 1)"></circle><circle r="5" cx="116.55" cy="392.53" fill="rgba(0, 0, 0, 1)"></circle><circle r="5" cx="97.1" cy="453.14" fill="rgba(0, 0, 0, 1)"></circle><circle r="5" cx="107.1" cy="524.31" fill="rgba(0, 0, 0, 1)"></circle><circle r="5" cx="106.14" cy="603.3" fill="rgba(0, 0, 0, 1)"></circle><circle r="5" cx="171.78" cy="319.81" fill="rgba(0, 0, 0, 1)"></circle><circle r="5" cx="180.63" cy="378.96" fill="rgba(0, 0, 0, 1)"></circle><circle r="5" cx="162" cy="461.98" fill="rgba(0, 0, 0, 1)"></circle><circle r="5" cx="174.42" cy="607.7" fill="rgba(0, 0, 0, 1)"></circle><circle r="5" cx="256.97" cy="319.25" fill="rgba(0, 0, 0, 1)"></circle><circle r="5" cx="236.21" cy="389.95" fill="rgba(0, 0, 0, 1)"></circle><circle r="5" cx="258.24" cy="445.44" fill="rgba(0, 0, 0, 1)"></circle><circle r="5" cx="245.69" cy="539.01" fill="rgba(0, 0, 0, 1)"></circle><circle r="5" cx="261.01" cy="587.27" fill="rgba(0, 0, 0, 1)"></circle><circle r="5" cx="329.35" cy="-42.31" fill="rgba(0, 0, 0, 1)"></circle><circle r="5" cx="307.85" cy="29.52" fill="rgba(0, 0, 0, 1)"></circle><circle r="5" cx="299.03" cy="103.02" fill="rgba(0, 0, 0, 1)"></circle><circle r="5" cx="320.07" cy="169.86" fill="rgba(0, 0, 0, 1)"></circle><circle r="5" cx="310.48" cy="232.42" fill="rgba(0, 0, 0, 1)"></circle><circle r="5" cx="303.83" cy="455.56" fill="rgba(0, 0, 0, 1)"></circle><circle r="5" cx="301.97" cy="524.03" fill="rgba(0, 0, 0, 1)"></circle><circle r="5" cx="316.34" cy="604.76" fill="rgba(0, 0, 0, 1)"></circle><circle r="5" cx="383.89" cy="-45.01" fill="rgba(0, 0, 0, 1)"></circle><circle r="5" cx="376.27" cy="18.34" fill="rgba(0, 0, 0, 1)"></circle><circle r="5" cx="392.48" cy="104.39" fill="rgba(0, 0, 0, 1)"></circle><circle r="5" cx="373.17" cy="178.74" fill="rgba(0, 0, 0, 1)"></circle><circle r="5" cx="387.85" cy="234.73" fill="rgba(0, 0, 0, 1)"></circle><circle r="5" cx="395.36" cy="324.44" fill="rgba(0, 0, 0, 1)"></circle><circle r="5" cx="371.47" cy="383.69" fill="rgba(0, 0, 0, 1)"></circle><circle r="5" cx="392.31" cy="463.39" fill="rgba(0, 0, 0, 1)"></circle><circle r="5" cx="395.38" cy="533.7" fill="rgba(0, 0, 0, 1)"></circle><circle r="5" cx="401.04" cy="599.98" fill="rgba(0, 0, 0, 1)"></circle><circle r="5" cx="464.19" cy="-48.69" fill="rgba(0, 0, 0, 1)"></circle><circle r="5" cx="466.87" cy="30.85" fill="rgba(0, 0, 0, 1)"></circle><circle r="5" cx="464.86" cy="108.51" fill="rgba(0, 0, 0, 1)"></circle><circle r="5" cx="469.71" cy="176.18" fill="rgba(0, 0, 0, 1)"></circle><circle r="5" cx="456.25" cy="250.46" fill="rgba(0, 0, 0, 1)"></circle><circle r="5" cx="461.65" cy="311.4" fill="rgba(0, 0, 0, 1)"></circle><circle r="5" cx="468.7" cy="373.12" fill="rgba(0, 0, 0, 1)"></circle><circle r="5" cx="458.78" cy="457.03" fill="rgba(0, 0, 0, 1)"></circle><circle r="5" cx="441.08" cy="526.42" fill="rgba(0, 0, 0, 1)"></circle><circle r="5" cx="537.18" cy="-23.78" fill="rgba(0, 0, 0, 1)"></circle><circle r="5" cx="541.51" cy="29.8" fill="rgba(0, 0, 0, 1)"></circle><circle r="5" cx="538.06" cy="115.8" fill="rgba(0, 0, 0, 1)"></circle><circle r="5" cx="519.28" cy="191.48" fill="rgba(0, 0, 0, 1)"></circle><circle r="5" cx="517.31" cy="241.39" fill="rgba(0, 0, 0, 1)"></circle><circle r="5" cx="515.29" cy="313.75" fill="rgba(0, 0, 0, 1)"></circle><circle r="5" cx="535.27" cy="399.57" fill="rgba(0, 0, 0, 1)"></circle><circle r="5" cx="538.91" cy="449.78" fill="rgba(0, 0, 0, 1)"></circle><circle r="5" cx="524.48" cy="521.94" fill="rgba(0, 0, 0, 1)"></circle><circle r="5" cx="534.56" cy="600.25" fill="rgba(0, 0, 0, 1)"></circle><circle r="5" cx="598.61" cy="-41.96" fill="rgba(0, 0, 0, 1)"></circle><circle r="5" cx="593.9" cy="36.79" fill="rgba(0, 0, 0, 1)"></circle><circle r="5" cx="602.16" cy="99.63" fill="rgba(0, 0, 0, 1)"></circle><circle r="5" cx="582.9" cy="165.07" fill="rgba(0, 0, 0, 1)"></circle><circle r="5" cx="608.7" cy="243.25" fill="rgba(0, 0, 0, 1)"></circle><circle r="5" cx="583.15" cy="312.51" fill="rgba(0, 0, 0, 1)"></circle><circle r="5" cx="591.58" cy="380.82" fill="rgba(0, 0, 0, 1)"></circle><circle r="5" cx="588.92" cy="442.89" fill="rgba(0, 0, 0, 1)"></circle><circle r="5" cx="592.15" cy="531.18" fill="rgba(0, 0, 0, 1)"></circle><circle r="5" cx="587.72" cy="604.78" fill="rgba(0, 0, 0, 1)"></circle><path d="M-29.64 464.95L-29.64 464.95" stroke="hsl(0, 4%, 51.5%)" stroke-width="1.5"></path><path d="M-29.64 464.95L35.66 464.67" stroke="hsl(0, 4%, 51.5%)" stroke-width="1.5"></path><path d="M-29.64 464.95L-36.02 531.01" stroke="hsl(0, 4%, 51.5%)" stroke-width="1.5"></path><path d="M-29.64 464.95L30.34 536.65" stroke="hsl(0, 4%, 51.5%)" stroke-width="1.5"></path><path d="M-29.64 464.95L-21.69 600.45" stroke="hsl(0, 4%, 51.5%)" stroke-width="1.5"></path><path d="M-29.64 464.95L90.32 531.4" stroke="hsl(0, 4%, 51.5%)" stroke-width="1.5"></path><path d="M188.74 464.25L188.74 464.25" stroke="hsl(0, 4%, 51.5%)" stroke-width="1.5"></path><path d="M188.74 464.25L232.95 454.52" stroke="hsl(0, 4%, 51.5%)" stroke-width="1.5"></path><path d="M188.74 464.25L166.01 521.86" stroke="hsl(0, 4%, 51.5%)" stroke-width="1.5"></path><path d="M188.74 464.25L253.73 516.47" stroke="hsl(0, 4%, 51.5%)" stroke-width="1.5"></path><path d="M188.74 464.25L239.49 387.53" stroke="hsl(0, 4%, 51.5%)" stroke-width="1.5"></path><path d="M188.74 464.25L90.32 531.4" stroke="hsl(0, 4%, 51.5%)" stroke-width="1.5"></path><path d="M188.74 464.25L234.79 588.39" stroke="hsl(0, 4%, 51.5%)" stroke-width="1.5"></path><path d="M326.78 314.9L326.78 314.9" stroke="hsl(0, 4%, 51.5%)" stroke-width="1.5"></path><path d="M326.78 314.9L386.54 320.16" stroke="hsl(0, 4%, 51.5%)" stroke-width="1.5"></path><path d="M326.78 314.9L373.33 228.6" stroke="hsl(0, 4%, 51.5%)" stroke-width="1.5"></path><path d="M326.78 314.9L398.68 391.99" stroke="hsl(0, 4%, 51.5%)" stroke-width="1.5"></path><path d="M326.78 314.9L239.49 387.53" stroke="hsl(0, 4%, 51.5%)" stroke-width="1.5"></path><path d="M332.25 510.29L332.25 510.29" stroke="hsl(0, 4%, 51.5%)" stroke-width="1.5"></path><path d="M332.25 510.29L383.34 513.1" stroke="hsl(0, 4%, 51.5%)" stroke-width="1.5"></path><path d="M332.25 510.29L253.73 516.47" stroke="hsl(0, 4%, 51.5%)" stroke-width="1.5"></path><path d="M384.73 594.63L384.73 594.63" stroke="hsl(0, 4%, 51.5%)" stroke-width="1.5"></path><path d="M384.73 594.63L329.39 608.54" stroke="hsl(0, 4%, 51.5%)" stroke-width="1.5"></path><path d="M454.06 239.94L454.06 239.94" stroke="hsl(0, 4%, 51.5%)" stroke-width="1.5"></path><path d="M454.06 239.94L462.29 182.96" stroke="hsl(0, 4%, 51.5%)" stroke-width="1.5"></path><path d="M454.06 239.94L468.15 312.31" stroke="hsl(0, 4%, 51.5%)" stroke-width="1.5"></path><path d="M454.06 239.94L533.55 254.36" stroke="hsl(0, 4%, 51.5%)" stroke-width="1.5"></path><path d="M454.06 239.94L373.33 228.6" stroke="hsl(0, 4%, 51.5%)" stroke-width="1.5"></path><path d="M454.06 239.94L516.45 181.88" stroke="hsl(0, 4%, 51.5%)" stroke-width="1.5"></path><path d="M533.55 254.36L533.55 254.36" stroke="hsl(0, 4%, 51.5%)" stroke-width="1.5"></path><path d="M533.55 254.36L592.15 249.94" stroke="hsl(0, 4%, 51.5%)" stroke-width="1.5"></path><path d="M533.55 254.36L526.52 323.74" stroke="hsl(0, 4%, 51.5%)" stroke-width="1.5"></path><path d="M582.68 33.58L582.68 33.58" stroke="hsl(0, 4%, 51.5%)" stroke-width="1.5"></path><path d="M582.68 33.58L531.29 45.61" stroke="hsl(0, 4%, 51.5%)" stroke-width="1.5"></path><path d="M582.68 33.58L584.6 -29.38" stroke="hsl(0, 4%, 51.5%)" stroke-width="1.5"></path><path d="M596.84 468.58L596.84 468.58" stroke="hsl(0, 4%, 51.5%)" stroke-width="1.5"></path><path d="M596.84 468.58L577.92 538.59" stroke="hsl(0, 4%, 51.5%)" stroke-width="1.5"></path><path d="M596.84 468.58L514.73 526.35" stroke="hsl(0, 4%, 51.5%)" stroke-width="1.5"></path><path d="M596.84 468.58L525.46 387.68" stroke="hsl(0, 4%, 51.5%)" stroke-width="1.5"></path><path d="M577.92 538.59L577.92 538.59" stroke="hsl(0, 4%, 51.5%)" stroke-width="1.5"></path><path d="M577.92 538.59L612.2 584.43" stroke="hsl(0, 4%, 51.5%)" stroke-width="1.5"></path><path d="M577.92 538.59L514.73 526.35" stroke="hsl(0, 4%, 51.5%)" stroke-width="1.5"></path><path d="M-36.02 531.01L-36.02 531.01" stroke="hsl(0, 4%, 51.5%)" stroke-width="1.5"></path><path d="M-36.02 531.01L30.34 536.65" stroke="hsl(0, 4%, 51.5%)" stroke-width="1.5"></path><path d="M-36.02 531.01L-21.69 600.45" stroke="hsl(0, 4%, 51.5%)" stroke-width="1.5"></path><path d="M-21.69 600.45L-21.69 600.45" stroke="hsl(0, 4%, 51.5%)" stroke-width="1.5"></path><path d="M-21.69 600.45L51.34 580.96" stroke="hsl(0, 4%, 51.5%)" stroke-width="1.5"></path><path d="M-21.69 600.45L30.34 536.65" stroke="hsl(0, 4%, 51.5%)" stroke-width="1.5"></path><path d="M35.66 464.67L35.66 464.67" stroke="hsl(0, 4%, 51.5%)" stroke-width="1.5"></path><path d="M35.66 464.67L30.34 536.65" stroke="hsl(0, 4%, 51.5%)" stroke-width="1.5"></path><path d="M30.34 536.65L30.34 536.65" stroke="hsl(0, 4%, 51.5%)" stroke-width="1.5"></path><path d="M30.34 536.65L51.34 580.96" stroke="hsl(0, 4%, 51.5%)" stroke-width="1.5"></path><path d="M30.34 536.65L90.32 531.4" stroke="hsl(0, 4%, 51.5%)" stroke-width="1.5"></path><path d="M51.34 580.96L51.34 580.96" stroke="hsl(0, 4%, 51.5%)" stroke-width="1.5"></path><path d="M51.34 580.96L88.04 589.69" stroke="hsl(0, 4%, 51.5%)" stroke-width="1.5"></path><path d="M51.34 580.96L90.32 531.4" stroke="hsl(0, 4%, 51.5%)" stroke-width="1.5"></path><path d="M51.34 580.96L-36.02 531.01" stroke="hsl(0, 4%, 51.5%)" stroke-width="1.5"></path><path d="M90.32 531.4L90.32 531.4" stroke="hsl(0, 4%, 51.5%)" stroke-width="1.5"></path><path d="M90.32 531.4L88.04 589.69" stroke="hsl(0, 4%, 51.5%)" stroke-width="1.5"></path><path d="M90.32 531.4L166.01 521.86" stroke="hsl(0, 4%, 51.5%)" stroke-width="1.5"></path><path d="M90.32 531.4L35.66 464.67" stroke="hsl(0, 4%, 51.5%)" stroke-width="1.5"></path><path d="M90.32 531.4L162.54 601.34" stroke="hsl(0, 4%, 51.5%)" stroke-width="1.5"></path><path d="M88.04 589.69L88.04 589.69" stroke="hsl(0, 4%, 51.5%)" stroke-width="1.5"></path><path d="M88.04 589.69L162.54 601.34" stroke="hsl(0, 4%, 51.5%)" stroke-width="1.5"></path><path d="M166.01 521.86L166.01 521.86" stroke="hsl(0, 4%, 51.5%)" stroke-width="1.5"></path><path d="M166.01 521.86L162.54 601.34" stroke="hsl(0, 4%, 51.5%)" stroke-width="1.5"></path><path d="M166.01 521.86L253.73 516.47" stroke="hsl(0, 4%, 51.5%)" stroke-width="1.5"></path><path d="M162.54 601.34L162.54 601.34" stroke="hsl(0, 4%, 51.5%)" stroke-width="1.5"></path><path d="M162.54 601.34L234.79 588.39" stroke="hsl(0, 4%, 51.5%)" stroke-width="1.5"></path><path d="M162.54 601.34L51.34 580.96" stroke="hsl(0, 4%, 51.5%)" stroke-width="1.5"></path><path d="M162.54 601.34L253.73 516.47" stroke="hsl(0, 4%, 51.5%)" stroke-width="1.5"></path><path d="M239.49 387.53L239.49 387.53" stroke="hsl(0, 4%, 51.5%)" stroke-width="1.5"></path><path d="M239.49 387.53L232.95 454.52" stroke="hsl(0, 4%, 51.5%)" stroke-width="1.5"></path><path d="M232.95 454.52L232.95 454.52" stroke="hsl(0, 4%, 51.5%)" stroke-width="1.5"></path><path d="M232.95 454.52L253.73 516.47" stroke="hsl(0, 4%, 51.5%)" stroke-width="1.5"></path><path d="M232.95 454.52L166.01 521.86" stroke="hsl(0, 4%, 51.5%)" stroke-width="1.5"></path><path d="M232.95 454.52L332.25 510.29" stroke="hsl(0, 4%, 51.5%)" stroke-width="1.5"></path><path d="M253.73 516.47L253.73 516.47" stroke="hsl(0, 4%, 51.5%)" stroke-width="1.5"></path><path d="M253.73 516.47L234.79 588.39" stroke="hsl(0, 4%, 51.5%)" stroke-width="1.5"></path><path d="M234.79 588.39L234.79 588.39" stroke="hsl(0, 4%, 51.5%)" stroke-width="1.5"></path><path d="M234.79 588.39L166.01 521.86" stroke="hsl(0, 4%, 51.5%)" stroke-width="1.5"></path><path d="M329.39 608.54L329.39 608.54" stroke="hsl(0, 4%, 51.5%)" stroke-width="1.5"></path><path d="M329.39 608.54L234.79 588.39" stroke="hsl(0, 4%, 51.5%)" stroke-width="1.5"></path><path d="M329.39 608.54L332.25 510.29" stroke="hsl(0, 4%, 51.5%)" stroke-width="1.5"></path><path d="M329.39 608.54L383.34 513.1" stroke="hsl(0, 4%, 51.5%)" stroke-width="1.5"></path><path d="M399.89 32.69L399.89 32.69" stroke="hsl(0, 4%, 51.5%)" stroke-width="1.5"></path><path d="M399.89 32.69L465.44 31.64" stroke="hsl(0, 4%, 51.5%)" stroke-width="1.5"></path><path d="M399.89 32.69L465.38 -49.18" stroke="hsl(0, 4%, 51.5%)" stroke-width="1.5"></path><path d="M399.89 32.69L531.29 45.61" stroke="hsl(0, 4%, 51.5%)" stroke-width="1.5"></path><path d="M373.33 228.6L373.33 228.6" stroke="hsl(0, 4%, 51.5%)" stroke-width="1.5"></path><path d="M373.33 228.6L386.54 320.16" stroke="hsl(0, 4%, 51.5%)" stroke-width="1.5"></path><path d="M373.33 228.6L462.29 182.96" stroke="hsl(0, 4%, 51.5%)" stroke-width="1.5"></path><path d="M386.54 320.16L386.54 320.16" stroke="hsl(0, 4%, 51.5%)" stroke-width="1.5"></path><path d="M386.54 320.16L398.68 391.99" stroke="hsl(0, 4%, 51.5%)" stroke-width="1.5"></path><path d="M386.54 320.16L468.15 312.31" stroke="hsl(0, 4%, 51.5%)" stroke-width="1.5"></path><path d="M398.68 391.99L398.68 391.99" stroke="hsl(0, 4%, 51.5%)" stroke-width="1.5"></path><path d="M398.68 391.99L392.44 449.44" stroke="hsl(0, 4%, 51.5%)" stroke-width="1.5"></path><path d="M398.68 391.99L462.69 373.22" stroke="hsl(0, 4%, 51.5%)" stroke-width="1.5"></path><path d="M392.44 449.44L392.44 449.44" stroke="hsl(0, 4%, 51.5%)" stroke-width="1.5"></path><path d="M392.44 449.44L383.34 513.1" stroke="hsl(0, 4%, 51.5%)" stroke-width="1.5"></path><path d="M383.34 513.1L383.34 513.1" stroke="hsl(0, 4%, 51.5%)" stroke-width="1.5"></path><path d="M383.34 513.1L384.73 594.63" stroke="hsl(0, 4%, 51.5%)" stroke-width="1.5"></path><path d="M383.34 513.1L466.89 440.01" stroke="hsl(0, 4%, 51.5%)" stroke-width="1.5"></path><path d="M383.34 513.1L398.68 391.99" stroke="hsl(0, 4%, 51.5%)" stroke-width="1.5"></path><path d="M465.38 -49.18L465.38 -49.18" stroke="hsl(0, 4%, 51.5%)" stroke-width="1.5"></path><path d="M465.38 -49.18L537.24 -35.1" stroke="hsl(0, 4%, 51.5%)" stroke-width="1.5"></path><path d="M465.38 -49.18L465.44 31.64" stroke="hsl(0, 4%, 51.5%)" stroke-width="1.5"></path><path d="M465.44 31.64L465.44 31.64" stroke="hsl(0, 4%, 51.5%)" stroke-width="1.5"></path><path d="M465.44 31.64L531.29 45.61" stroke="hsl(0, 4%, 51.5%)" stroke-width="1.5"></path><path d="M465.44 31.64L537.24 -35.1" stroke="hsl(0, 4%, 51.5%)" stroke-width="1.5"></path><path d="M462.29 182.96L462.29 182.96" stroke="hsl(0, 4%, 51.5%)" stroke-width="1.5"></path><path d="M462.29 182.96L516.45 181.88" stroke="hsl(0, 4%, 51.5%)" stroke-width="1.5"></path><path d="M462.29 182.96L533.55 254.36" stroke="hsl(0, 4%, 51.5%)" stroke-width="1.5"></path><path d="M462.29 182.96L539.04 96.98" stroke="hsl(0, 4%, 51.5%)" stroke-width="1.5"></path><path d="M462.29 182.96L468.15 312.31" stroke="hsl(0, 4%, 51.5%)" stroke-width="1.5"></path><path d="M468.15 312.31L468.15 312.31" stroke="hsl(0, 4%, 51.5%)" stroke-width="1.5"></path><path d="M468.15 312.31L526.52 323.74" stroke="hsl(0, 4%, 51.5%)" stroke-width="1.5"></path><path d="M468.15 312.31L462.69 373.22" stroke="hsl(0, 4%, 51.5%)" stroke-width="1.5"></path><path d="M468.15 312.31L533.55 254.36" stroke="hsl(0, 4%, 51.5%)" stroke-width="1.5"></path><path d="M468.15 312.31L525.46 387.68" stroke="hsl(0, 4%, 51.5%)" stroke-width="1.5"></path><path d="M462.69 373.22L462.69 373.22" stroke="hsl(0, 4%, 51.5%)" stroke-width="1.5"></path><path d="M462.69 373.22L525.46 387.68" stroke="hsl(0, 4%, 51.5%)" stroke-width="1.5"></path><path d="M466.89 440.01L466.89 440.01" stroke="hsl(0, 4%, 51.5%)" stroke-width="1.5"></path><path d="M466.89 440.01L462.69 373.22" stroke="hsl(0, 4%, 51.5%)" stroke-width="1.5"></path><path d="M466.89 440.01L392.44 449.44" stroke="hsl(0, 4%, 51.5%)" stroke-width="1.5"></path><path d="M469.34 607.31L469.34 607.31" stroke="hsl(0, 4%, 51.5%)" stroke-width="1.5"></path><path d="M469.34 607.31L524.5 601.34" stroke="hsl(0, 4%, 51.5%)" stroke-width="1.5"></path><path d="M469.34 607.31L384.73 594.63" stroke="hsl(0, 4%, 51.5%)" stroke-width="1.5"></path><path d="M469.34 607.31L514.73 526.35" stroke="hsl(0, 4%, 51.5%)" stroke-width="1.5"></path><path d="M537.24 -35.1L537.24 -35.1" stroke="hsl(0, 4%, 51.5%)" stroke-width="1.5"></path><path d="M537.24 -35.1L584.6 -29.38" stroke="hsl(0, 4%, 51.5%)" stroke-width="1.5"></path><path d="M537.24 -35.1L531.29 45.61" stroke="hsl(0, 4%, 51.5%)" stroke-width="1.5"></path><path d="M537.24 -35.1L582.68 33.58" stroke="hsl(0, 4%, 51.5%)" stroke-width="1.5"></path><path d="M537.24 -35.1L539.04 96.98" stroke="hsl(0, 4%, 51.5%)" stroke-width="1.5"></path><path d="M531.29 45.61L531.29 45.61" stroke="hsl(0, 4%, 51.5%)" stroke-width="1.5"></path><path d="M531.29 45.61L539.04 96.98" stroke="hsl(0, 4%, 51.5%)" stroke-width="1.5"></path><path d="M531.29 45.61L584.6 -29.38" stroke="hsl(0, 4%, 51.5%)" stroke-width="1.5"></path><path d="M539.04 96.98L539.04 96.98" stroke="hsl(0, 4%, 51.5%)" stroke-width="1.5"></path><path d="M539.04 96.98L612.4 114.88" stroke="hsl(0, 4%, 51.5%)" stroke-width="1.5"></path><path d="M539.04 96.98L582.68 33.58" stroke="hsl(0, 4%, 51.5%)" stroke-width="1.5"></path><path d="M516.45 181.88L516.45 181.88" stroke="hsl(0, 4%, 51.5%)" stroke-width="1.5"></path><path d="M516.45 181.88L533.55 254.36" stroke="hsl(0, 4%, 51.5%)" stroke-width="1.5"></path><path d="M516.45 181.88L598.08 182.42" stroke="hsl(0, 4%, 51.5%)" stroke-width="1.5"></path><path d="M516.45 181.88L539.04 96.98" stroke="hsl(0, 4%, 51.5%)" stroke-width="1.5"></path><path d="M516.45 181.88L592.15 249.94" stroke="hsl(0, 4%, 51.5%)" stroke-width="1.5"></path><path d="M526.52 323.74L526.52 323.74" stroke="hsl(0, 4%, 51.5%)" stroke-width="1.5"></path><path d="M526.52 323.74L525.46 387.68" stroke="hsl(0, 4%, 51.5%)" stroke-width="1.5"></path><path d="M526.52 323.74L596.01 319.04" stroke="hsl(0, 4%, 51.5%)" stroke-width="1.5"></path><path d="M525.46 387.68L525.46 387.68" stroke="hsl(0, 4%, 51.5%)" stroke-width="1.5"></path><path d="M525.46 387.68L466.89 440.01" stroke="hsl(0, 4%, 51.5%)" stroke-width="1.5"></path><path d="M514.73 526.35L514.73 526.35" stroke="hsl(0, 4%, 51.5%)" stroke-width="1.5"></path><path d="M514.73 526.35L524.5 601.34" stroke="hsl(0, 4%, 51.5%)" stroke-width="1.5"></path><path d="M514.73 526.35L466.89 440.01" stroke="hsl(0, 4%, 51.5%)" stroke-width="1.5"></path><path d="M524.5 601.34L524.5 601.34" stroke="hsl(0, 4%, 51.5%)" stroke-width="1.5"></path><path d="M584.6 -29.38L584.6 -29.38" stroke="hsl(0, 4%, 51.5%)" stroke-width="1.5"></path><path d="M584.6 -29.38L465.38 -49.18" stroke="hsl(0, 4%, 51.5%)" stroke-width="1.5"></path><path d="M584.6 -29.38L465.44 31.64" stroke="hsl(0, 4%, 51.5%)" stroke-width="1.5"></path><path d="M584.6 -29.38L539.04 96.98" stroke="hsl(0, 4%, 51.5%)" stroke-width="1.5"></path><path d="M612.4 114.88L612.4 114.88" stroke="hsl(0, 4%, 51.5%)" stroke-width="1.5"></path><path d="M612.4 114.88L598.08 182.42" stroke="hsl(0, 4%, 51.5%)" stroke-width="1.5"></path><path d="M598.08 182.42L598.08 182.42" stroke="hsl(0, 4%, 51.5%)" stroke-width="1.5"></path><path d="M598.08 182.42L592.15 249.94" stroke="hsl(0, 4%, 51.5%)" stroke-width="1.5"></path><path d="M598.08 182.42L533.55 254.36" stroke="hsl(0, 4%, 51.5%)" stroke-width="1.5"></path><path d="M598.08 182.42L539.04 96.98" stroke="hsl(0, 4%, 51.5%)" stroke-width="1.5"></path><path d="M598.08 182.42L462.29 182.96" stroke="hsl(0, 4%, 51.5%)" stroke-width="1.5"></path><path d="M592.15 249.94L592.15 249.94" stroke="hsl(0, 4%, 51.5%)" stroke-width="1.5"></path><path d="M592.15 249.94L596.01 319.04" stroke="hsl(0, 4%, 51.5%)" stroke-width="1.5"></path><path d="M592.15 249.94L526.52 323.74" stroke="hsl(0, 4%, 51.5%)" stroke-width="1.5"></path><path d="M592.15 249.94L612.4 114.88" stroke="hsl(0, 4%, 51.5%)" stroke-width="1.5"></path><path d="M596.01 319.04L596.01 319.04" stroke="hsl(0, 4%, 51.5%)" stroke-width="1.5"></path><path d="M596.01 319.04L533.55 254.36" stroke="hsl(0, 4%, 51.5%)" stroke-width="1.5"></path><path d="M596.01 319.04L525.46 387.68" stroke="hsl(0, 4%, 51.5%)" stroke-width="1.5"></path><path d="M596.01 319.04L468.15 312.31" stroke="hsl(0, 4%, 51.5%)" stroke-width="1.5"></path><path d="M612.2 584.43L612.2 584.43" stroke="hsl(0, 4%, 51.5%)" stroke-width="1.5"></path><path d="M612.2 584.43L524.5 601.34" stroke="hsl(0, 4%, 51.5%)" stroke-width="1.5"></path><path d="M612.2 584.43L514.73 526.35" stroke="hsl(0, 4%, 51.5%)" stroke-width="1.5"></path><path d="M612.2 584.43L596.84 468.58" stroke="hsl(0, 4%, 51.5%)" stroke-width="1.5"></path><path d="M612.2 584.43L469.34 607.31" stroke="hsl(0, 4%, 51.5%)" stroke-width="1.5"></path><circle r="25" cx="-29.64" cy="464.95" fill="url(#SvgjsRadialGradient1046)"></circle><circle r="25" cx="188.74" cy="464.25" fill="url(#SvgjsRadialGradient1046)"></circle><circle r="25" cx="326.78" cy="314.9" fill="url(#SvgjsRadialGradient1046)"></circle><circle r="25" cx="332.25" cy="510.29" fill="url(#SvgjsRadialGradient1046)"></circle><circle r="25" cx="384.73" cy="594.63" fill="url(#SvgjsRadialGradient1046)"></circle><circle r="25" cx="454.06" cy="239.94" fill="url(#SvgjsRadialGradient1046)"></circle><circle r="25" cx="533.55" cy="254.36" fill="url(#SvgjsRadialGradient1046)"></circle><circle r="25" cx="582.68" cy="33.58" fill="url(#SvgjsRadialGradient1046)"></circle><circle r="25" cx="596.84" cy="468.58" fill="url(#SvgjsRadialGradient1046)"></circle><circle r="25" cx="577.92" cy="538.59" fill="url(#SvgjsRadialGradient1046)"></circle><circle r="5" cx="-36.02" cy="531.01" fill="#b4b0b0"></circle><circle r="5" cx="-21.69" cy="600.45" fill="#b4b0b0"></circle><circle r="5" cx="35.66" cy="464.67" fill="#b4b0b0"></circle><circle r="5" cx="30.34" cy="536.65" fill="#b4b0b0"></circle><circle r="5" cx="51.34" cy="580.96" fill="#b4b0b0"></circle><circle r="5" cx="90.32" cy="531.4" fill="#b4b0b0"></circle><circle r="5" cx="88.04" cy="589.69" fill="#b4b0b0"></circle><circle r="5" cx="166.01" cy="521.86" fill="#b4b0b0"></circle><circle r="5" cx="162.54" cy="601.34" fill="#b4b0b0"></circle><circle r="5" cx="239.49" cy="387.53" fill="#b4b0b0"></circle><circle r="5" cx="232.95" cy="454.52" fill="#b4b0b0"></circle><circle r="5" cx="253.73" cy="516.47" fill="#b4b0b0"></circle><circle r="5" cx="234.79" cy="588.39" fill="#b4b0b0"></circle><circle r="5" cx="329.39" cy="608.54" fill="#b4b0b0"></circle><circle r="5" cx="399.89" cy="32.69" fill="#b4b0b0"></circle><circle r="5" cx="373.33" cy="228.6" fill="#b4b0b0"></circle><circle r="5" cx="386.54" cy="320.16" fill="#b4b0b0"></circle><circle r="5" cx="398.68" cy="391.99" fill="#b4b0b0"></circle><circle r="5" cx="392.44" cy="449.44" fill="#b4b0b0"></circle><circle r="5" cx="383.34" cy="513.1" fill="#b4b0b0"></circle><circle r="5" cx="465.38" cy="-49.18" fill="#b4b0b0"></circle><circle r="5" cx="465.44" cy="31.64" fill="#b4b0b0"></circle><circle r="5" cx="462.29" cy="182.96" fill="#b4b0b0"></circle><circle r="5" cx="468.15" cy="312.31" fill="#b4b0b0"></circle><circle r="5" cx="462.69" cy="373.22" fill="#b4b0b0"></circle><circle r="5" cx="466.89" cy="440.01" fill="#b4b0b0"></circle><circle r="5" cx="469.34" cy="607.31" fill="#b4b0b0"></circle><circle r="5" cx="537.24" cy="-35.1" fill="#b4b0b0"></circle><circle r="5" cx="531.29" cy="45.61" fill="#b4b0b0"></circle><circle r="5" cx="539.04" cy="96.98" fill="#b4b0b0"></circle><circle r="5" cx="516.45" cy="181.88" fill="#b4b0b0"></circle><circle r="5" cx="526.52" cy="323.74" fill="#b4b0b0"></circle><circle r="5" cx="525.46" cy="387.68" fill="#b4b0b0"></circle><circle r="5" cx="514.73" cy="526.35" fill="#b4b0b0"></circle><circle r="5" cx="524.5" cy="601.34" fill="#b4b0b0"></circle><circle r="5" cx="584.6" cy="-29.38" fill="#b4b0b0"></circle><circle r="5" cx="612.4" cy="114.88" fill="#b4b0b0"></circle><circle r="5" cx="598.08" cy="182.42" fill="#b4b0b0"></circle><circle r="5" cx="592.15" cy="249.94" fill="#b4b0b0"></circle><circle r="5" cx="596.01" cy="319.04" fill="#b4b0b0"></circle><circle r="5" cx="612.2" cy="584.43" fill="#b4b0b0"></circle></g><defs><mask id="SvgjsMask1044"><rect width="500" height="560" fill="#ffffff"></rect></mask><linearGradient x1="50%" y1="0%" x2="50%" y2="100%" gradientUnits="userSpaceOnUse" id="SvgjsLinearGradient1045"><stop stop-color="#0e2a47" offset="0"></stop><stop stop-color="#00459e" offset="1"></stop></linearGradient><radialGradient id="SvgjsRadialGradient1046"><stop stop-color="#ffffff" offset="0.1"></stop><stop stop-color="rgba(105, 97, 97, 1)" offset="0.2"></stop><stop stop-color="rgba(105, 97, 97, 0)" offset="1"></stop></radialGradient></defs></svg>