<svg xmlns="http://www.w3.org/2000/svg" xmlns:svgjs="http://svgjs.com/svgjs" xmlns:xlink="http://www.w3.org/1999/xlink" width="500" height="500" preserveAspectRatio="none" version="1.1" viewBox="0 0 500 500"><g fill="none" mask="url(&quot;#SvgjsMask1032&quot;)"><rect width="500" height="500" x="0" y="0" fill="rgba(38, 31, 98, 1)"/><circle cx="179.63" cy="251.15" r="7.42" fill="rgba(107, 116, 218, 1)" filter="url(#SvgjsFilter1033)"/><circle cx="315.73" cy="58.27" r="6.32" fill="rgba(87, 90, 128, 1)" filter="url(#SvgjsFilter1033)"/><circle cx="86.86" cy="322.93" r="5.06" fill="rgba(87, 90, 128, 1)" filter="url(#SvgjsFilter1033)"/><circle cx="181.695" cy="488.905" r="4.245" fill="rgba(254, 249, 249, 1)" filter="url(#SvgjsFilter1033)"/><circle cx="255.46" cy="309.25" r="5.36" fill="rgba(87, 90, 128, 1)" filter="url(#SvgjsFilter1033)"/><circle cx="339.505" cy="31.845" r="5.125" fill="rgba(254, 249, 249, 1)" filter="url(#SvgjsFilter1033)"/><circle cx="481.22" cy="345.41" r="5.35" fill="rgba(107, 116, 218, 1)" filter="url(#SvgjsFilter1033)"/><circle cx="208.885" cy="39.215" r="5.485" fill="rgba(87, 90, 128, 1)" filter="url(#SvgjsFilter1033)"/><circle cx="27.83" cy="346.82" r="6.12" fill="rgba(254, 249, 249, 1)" filter="url(#SvgjsFilter1033)"/><circle cx="126.035" cy="345.595" r="5.025" fill="rgba(254, 249, 249, 1)" filter="url(#SvgjsFilter1033)"/><circle cx="320.84" cy="365.53" r="7.93" fill="rgba(107, 116, 218, 1)" filter="url(#SvgjsFilter1033)"/><circle cx="235.425" cy="243.145" r="6.255" fill="rgba(254, 249, 249, 1)" filter="url(#SvgjsFilter1033)"/><circle cx="405.025" cy="499.795" r="7.945" fill="rgba(107, 116, 218, 1)" filter="url(#SvgjsFilter1033)"/><circle cx="161.87" cy="87.02" r="6.68" fill="rgba(107, 116, 218, 1)" filter="url(#SvgjsFilter1033)"/><circle cx="119.895" cy="467.285" r="7.645" fill="rgba(254, 249, 249, 1)" filter="url(#SvgjsFilter1033)"/><circle cx="370.295" cy="474.075" r="5.535" fill="rgba(87, 90, 128, 1)" filter="url(#SvgjsFilter1033)"/><circle cx="156.81" cy="230.35" r="6.76" fill="rgba(107, 116, 218, 1)" filter="url(#SvgjsFilter1033)"/><circle cx="290.585" cy="319.745" r="4.195" fill="rgba(87, 90, 128, 1)" filter="url(#SvgjsFilter1033)"/><circle cx="424.8" cy="245.61" r="5.79" fill="rgba(107, 116, 218, 1)" filter="url(#SvgjsFilter1033)"/><circle cx="231.435" cy="121.445" r="4.825" fill="rgba(87, 90, 128, 1)" filter="url(#SvgjsFilter1033)"/><path fill="rgba(87, 90, 128, 1)" d="M329.6 290.6L347 284.7 351.6 286.9 352.4 298.2 348.2 301.1 330.1 297.5C329.9 297.5 329.9 297.5 329.6 297.5 329.2 297.6 328.8 297.8 328.6 298.5 328.6 299.2 328.9 299.6 329.6 299.8L345.4 302.9 338.8 307.4 331.8 306.1C331.8 306.1 331.6 306.1 331.6 306.1 331.1 306.1 330.7 306.4 330.5 307.1 330.4 307.5 330.8 308.2 331.5 308.3L336.1 309.3 331.2 312.6C330.7 312.8 330.6 313.5 330.8 314.2S332 314.8 332.6 314.5L337.3 311.3 336.5 315.8C336.3 316.5 336.8 317.1 337.5 317.3 337.9 317.2 338.6 317 338.8 316.3L340.1 309.3 346.9 304.8 343.8 320.6C343.6 321.3 344.1 321.9 344.5 322.1 345.2 322.1 345.8 321.8 346 321.1L349.4 303.1 353.9 300.1 363.8 304.9 364.2 310.3 352.3 324.2C351.8 324.7 351.9 325.4 352.4 325.8S353.5 326.2 353.9 325.7L364.4 313.4 365 321.6 360.5 326.8C360 327.3 360.1 327.9 360.6 328.6S361.7 328.9 362.1 328.4L365.2 324.7 365.6 330.6C365.7 331.3 366.4 331.7 367 331.7 367.7 331.6 368.1 331.1 368.1 330.5L367.6 324.5 371.2 327.6C371.7 328.2 372.4 328.2 372.8 327.5 373.2 327 373.1 326.3 372.6 325.9L367.4 321.4 366.8 313.2 379 323.9C379.4 324.3 380.3 324.3 380.7 323.8S381.1 322.6 380.6 322.2L366.6 310.1 366.2 304.8 375.6 298.5 380.2 300.9 386.1 318.3C386.4 318.9 387.1 319.1 387.8 319.1 388.4 318.8 388.6 318.1 388.5 317.4L383.2 302.2 390.4 305.7 392.6 312.5C392.9 313.1 393.6 313.3 394.3 313.2 394.7 313 395.1 312.3 394.8 311.6L393.4 307.3 398.7 309.8C399.1 310 399.8 309.7 400.2 309.3 400.4 308.6 400.1 307.9 399.7 307.7L394.4 305.2 398.9 303.6C399.3 303.3 399.7 302.6 399.5 302.2 399.4 301.5 399 301.3 398.3 301.4 398.3 301.4 398.1 301.4 398.1 301.4L391.3 303.6 384.2 300.1 399.4 294.8C400.1 294.6 400.5 294.1 400.2 293.4 399.9 292.8 399.5 292.6 399 292.6 398.8 292.7 398.8 292.7 398.8 292.7L381.2 298.8 376.6 296.5 375.8 285.1 380 282.4 398.3 285.8C398.8 286 399.4 285.5 399.6 285 399.8 284.3 399.3 283.7 398.6 283.5L382.8 280.4 389.4 275.9 396.4 277.2C397.1 277.4 397.7 277.1 397.7 276.5 397.8 275.8 397.3 275.2 396.9 275L392.2 274.2 397 270.9C397.5 270.5 397.6 269.8 397.4 269.1 397.1 268.9 396.7 268.7 396.2 268.8 396 268.8 396 268.8 395.8 269L390.9 272.3 391.7 267.5C391.9 266.9 391.4 266.4 390.9 266.3 390.7 266.3 390.7 266.3 390.5 266.3 390 266.3 389.6 266.6 389.4 267L388.1 274 381.5 278.5 384.7 262.7C384.6 262 384.3 261.4 383.7 261.4 383.4 261.2 383.4 261.2 383.2 261.2 382.8 261.3 382.4 261.7 382.2 262.2L378.8 280.5 374.5 283.2 364.4 278.4 364 273.3 376.2 259.3C376.6 258.8 376.5 257.9 376 257.5S374.7 257.2 374.3 257.6L363.8 270 363.2 262 367.7 256.5C368.1 256.1 368.1 255.4 367.6 255 367.1 254.6 366.5 254.6 366.1 255.1L363 258.7 362.6 252.7C362.5 252.2 362 251.6 361.4 251.6 360.7 251.7 360.1 252.4 360.1 252.8L360.5 258.8 357 255.7C356.7 255.5 356.5 255.3 356.3 255.3 355.8 255.4 355.6 255.6 355.4 255.8 355 256.3 355.1 257 355.5 257.4L360.8 262.1 361.3 270.1 349.2 259.4C349 259.2 348.8 259.2 348.3 259.2 348.1 259.3 347.9 259.3 347.7 259.5 347.3 260 347.3 260.9 347.8 261.3L361.6 273.5 361.9 278.6 352.8 284.8 348 282.7 342 265C341.8 264.6 341.3 264.2 340.9 264.2 340.7 264.2 340.7 264.2 340.7 264.5 340 264.5 339.6 265.2 339.9 265.9L345.2 281.1 337.8 277.6 335.6 270.8C335.3 270.4 334.8 270.2 334.4 270.3 334.4 270.3 334.2 270.3 334.2 270.3 333.5 270.3 333.1 271 333.4 271.7L335 276.2 329.7 273.7C329.5 273.5 329.3 273.5 329.1 273.5 328.6 273.6 328.2 273.8 328.2 274 327.8 274.7 328.1 275.4 328.6 275.8L333.9 278.3 329.5 279.7C328.9 280 328.5 280.7 328.7 281.4 329 281.8 329.7 282.2 330.1 281.9L336.8 279.7 344 283.2 328.8 288.5C328.1 288.7 328 289.4 328 290.1 328.3 290.5 329 290.9 329.6 290.6ZM354.8 296.7L354.1 288 354.1 286.7 355.1 285.9 362.1 281.2 363.4 280.5 364.6 281 372.2 284.7 373.3 285.3 373.4 286.7 374 295.3 374.1 296.6 373.1 297.4 366.1 302.1 365 302.8 363.6 302.3 356 298.6 354.9 298 354.8 296.7Z"/><path fill="rgba(107, 116, 218, 1)" d="M71.9 486.1L69.4 480.9 72.9 481C73.3 481.1 73.7 480.7 73.8 480.2 73.7 479.8 73.4 479.4 73 479.4L68.6 479.1 66.4 475.1 75.6 475.8C76.1 475.7 76.5 475.4 76.5 475 76.5 474.4 76.2 474 75.7 474.1L65.6 473.3 62.6 467.1 70.4 468.5 66.1 461.8 73 462.2 77.6 471.3C77.5 471.5 77.6 471.5 77.8 471.6 78 471.8 78.4 471.9 78.7 471.7 79.1 471.5 79.2 471 79.1 470.5L75 462.3 79.5 462.8 81.5 466.7C81.5 466.9 81.7 467 81.8 467.1 81.9 467.2 82.3 467.3 82.6 467.1 83 466.9 83.1 466.4 82.9 466.1L81.4 462.9 87.3 463.1C87.8 463.3 88 462.9 88.2 462.4 88.2 462 87.9 461.6 87.3 461.6L81.6 461.1 83.5 458.2C83.8 457.8 83.6 457.3 83.3 457.1 82.9 456.8 82.4 456.9 82.1 457.3L79.6 461.1 75.1 460.6 80.1 453.2C80.4 452.7 80.3 452.3 79.9 452 79.6 451.8 79 451.8 78.7 452.2L73.2 460.5 66.2 460.1 71.3 454.1 63.4 454.4 67.3 448.6 77.3 449.3C77.9 449.3 78.2 448.8 78.2 448.5 78.3 448.1 77.9 447.7 77.4 447.6L68.3 447.1 70.8 443.3 75.3 443.5C75.8 443.7 76.2 443.3 76.2 442.7 76.3 442.4 76 442 75.4 442L71.9 441.7 75.2 436.8C75.5 436.4 75.4 435.9 75 435.7S74.1 435.5 73.8 435.9L70.6 440.7 69 437.7C68.8 437.1 68.2 437 67.9 437.2 67.4 437.4 67.2 437.9 67.6 438.3L69.4 442.4 66.9 446.2 63 437.9C62.7 437.5 62.2 437.4 61.9 437.5 61.3 437.8 61.2 438.3 61.5 438.7L65.9 447.7 62 453.5 59.4 446.1 55.7 453.1 52.7 446.8 58.2 438.5C58.5 438.1 58.3 437.5 58 437.4 57.6 437.1 57.1 437.2 56.8 437.6L51.7 445.2 49.7 441 52.2 437.3C52.5 436.9 52.4 436.4 52 436.1 51.7 436 51.1 436 50.8 436.4L48.9 439.3 46.3 434.2C46.1 433.6 45.6 433.5 45.1 433.8 44.8 434 44.5 434.4 44.9 434.8L47.4 440.1 43.8 439.9C43.5 439.9 43.1 440.2 43 440.6 43 440.9 43.1 441.3 43.3 441.4 43.4 441.5 43.6 441.5 43.8 441.5L48.2 441.8 50.3 445.9 41.1 445.1C40.7 445.2 40.3 445.6 40.2 445.9 40.2 446.3 40.4 446.6 40.6 446.8 40.8 446.9 40.8 446.9 41 446.9L51.1 447.6 54.2 453.9 46.3 452.4 50.7 459.1 43.7 458.7 39.2 449.6C39 449.3 38.6 449 38 449.3 37.7 449.4 37.5 449.9 37.6 450.4L41.8 458.6 37.2 458.2 35.3 454.2C35.2 453.8 34.7 453.6 34.1 453.9 33.8 454.1 33.6 454.6 33.7 455L35.3 458.1 29.5 457.8C29 457.7 28.7 458.1 28.6 458.6 28.6 458.8 28.8 459.1 28.9 459.2 29.1 459.3 29.2 459.4 29.4 459.4L35.2 459.8 33.2 462.7C32.9 463.1 33.2 463.7 33.4 463.9L33.4 463.9C33.9 464.1 34.3 464 34.6 463.6L37.1 459.9 41.6 460.3 36.6 467.8C36.4 468.2 36.4 468.7 36.9 468.9S37.7 469.1 38 468.7L43.6 460.4 50.5 460.8 45.5 466.9 53.3 466.5 49.4 472.3 39.4 471.7C38.8 471.7 38.6 472.1 38.5 472.5 38.5 472.8 38.8 473.2 39.3 473.4L48.3 474 45.9 477.6 41.4 477.4C40.9 477.3 40.5 477.6 40.5 478.2 40.5 478.6 40.8 479 41.3 479.1L44.8 479.3 41.6 484.1C41.3 484.5 41.4 485 41.8 485.3S42.7 485.5 42.9 485L46.2 480.2 47.8 483.2C47.8 483.5 47.9 483.6 48.1 483.7 48.4 483.8 48.6 483.8 48.8 483.8 49.4 483.5 49.5 483 49.2 482.6L47.3 478.5 49.8 474.8 53.7 483C53.9 483.1 54 483.2 54.1 483.3 54.4 483.5 54.6 483.4 54.9 483.4 55.4 483.2 55.6 482.7 55.2 482.2L50.8 473.3 54.7 467.4 57.4 474.8 61 467.9 64.1 474.1 58.5 482.4C58.2 482.8 58.5 483.4 58.8 483.6 59.2 483.9 59.6 483.8 59.9 483.4L64.9 475.9 67 479.9 64.5 483.6C64.3 484.1 64.3 484.5 64.8 484.8S65.6 485 65.9 484.6L67.9 481.7 70.4 486.8C70.5 487 70.6 487.1 70.8 487.2 70.9 487.3 71.3 487.3 71.6 487.2 71.9 487 72.2 486.6 71.9 486.1ZM57.7 470.8L55.5 464.8 49.1 465.1 53.2 460 49.8 454.7 56.1 455.8 59.1 450.1 61.2 456.2 67.7 455.9 63.6 460.8 67 466.2 60.7 465 57.7 470.8Z"/><path fill="rgba(107, 116, 218, 1)" d="M234.7 385.7L246.8 371.9 251.9 371.4 258.2 380.8 256 385.5 238.6 391.4C238.4 391.5 238.4 391.5 238.2 391.7 237.8 391.9 237.6 392.3 237.8 393 238.2 393.6 238.6 393.8 239.3 393.6L254.5 388.4 251.1 395.6 244.4 398C244.4 398 244.2 398.1 244.2 398.1 243.8 398.3 243.6 398.8 243.8 399.4 243.8 399.9 244.6 400.2 245.2 400L249.7 398.7 247.1 403.9C246.8 404.4 247 405 247.6 405.5S248.9 405.4 249.3 404.8L251.7 399.7 253.3 404C253.5 404.7 254.2 405 254.9 404.8 255.3 404.5 255.7 404 255.5 403.3L253.1 396.6 256.7 389.3 262 404.5C262.2 405.2 262.9 405.5 263.4 405.5 264 405.1 264.4 404.5 264.2 403.9L258.1 386.5 260.4 381.7 271.5 380.9 274.5 385.3 271.2 403.4C271 404 271.4 404.6 272 404.7S273.2 404.5 273.3 403.8L276.2 387.9 280.8 394.7 279.5 401.5C279.4 402.1 279.8 402.7 280.5 403S281.7 402.7 281.8 402.1L282.6 397.3 285.9 402.3C286.3 402.8 287.1 402.8 287.7 402.4 288.2 402.1 288.3 401.5 288 400.9L284.6 395.9 289.2 396.8C290 397.1 290.5 396.7 290.5 395.9 290.6 395.3 290.3 394.8 289.6 394.7L282.8 393.4 278.2 386.5 294.1 389.8C294.7 389.9 295.5 389.4 295.6 388.8S295.3 387.6 294.7 387.5L276.5 384 273.5 379.6 278.5 369.5 283.7 369.2 297.5 381.3C298 381.7 298.7 381.5 299.3 381.2 299.7 380.6 299.5 379.9 299.1 379.4L286.9 368.9 294.9 368.3 300.2 373C300.8 373.4 301.4 373.2 302 372.9 302.2 372.4 302.2 371.6 301.7 371.2L298.3 368.2 304.1 367.7C304.6 367.6 305 367.1 305.1 366.4 305 365.8 304.4 365.3 303.9 365.4L298.1 365.9 301.2 362.2C301.4 361.7 301.4 360.9 301 360.7 300.6 360.1 300.1 360.2 299.6 360.6 299.6 360.6 299.4 360.7 299.4 360.7L294.7 366 286.7 366.6 297.2 354.4C297.7 353.8 297.8 353.2 297.2 352.8 296.7 352.3 296.2 352.4 295.8 352.6 295.6 352.8 295.6 352.8 295.6 352.8L283.5 366.9 278.3 367.2 271.9 357.8 274.2 353.3 291.7 347.1C292.2 347 292.5 346.3 292.5 345.8 292.3 345.1 291.5 344.8 290.9 345L275.6 350.2 279.1 343 285.8 340.6C286.5 340.4 286.9 339.9 286.5 339.3 286.3 338.7 285.6 338.4 285.1 338.4L280.6 340.1 283.2 334.9C283.3 334.2 283.1 333.6 282.6 333.1 282.3 333.1 281.8 333.1 281.4 333.4 281.2 333.5 281.2 333.5 281.2 333.8L278.6 339.1 276.9 334.6C276.7 333.9 276.1 333.8 275.6 333.9 275.4 334 275.4 334 275.2 334.1 274.8 334.4 274.6 334.8 274.6 335.3L277 342 273.6 349.2 268.4 333.9C268 333.4 267.4 332.9 266.9 333.3 266.6 333.3 266.6 333.3 266.4 333.4 266 333.6 265.9 334.3 266 334.7L272.2 352.3 269.9 356.8 258.7 357.7 255.8 353.4 259.3 335.2C259.4 334.6 258.9 333.9 258.3 333.8S256.9 334.1 256.8 334.8L253.9 350.7 249.4 344.1 250.6 337.1C250.7 336.5 250.4 335.9 249.8 335.8 249.1 335.7 248.6 336 248.5 336.7L247.6 341.3 244.2 336.3C244 336 243.2 335.7 242.7 336 242.1 336.4 241.9 337.3 242.2 337.7L245.5 342.7 240.9 341.8C240.6 341.7 240.3 341.7 240.1 341.8 239.8 342 239.7 342.3 239.6 342.6 239.5 343.3 239.9 343.8 240.5 343.9L247.4 345.4 251.9 352 236 348.8C235.7 348.8 235.5 348.9 235.2 349.2 235 349.3 234.8 349.4 234.8 349.7 234.6 350.3 235.1 351.1 235.8 351.2L253.8 354.8 256.6 359 251.8 369 246.6 369.6 232.7 357.3C232.2 357.1 231.6 356.9 231.2 357.2 231.1 357.3 231.1 357.3 231.2 357.5 230.6 357.9 230.6 358.7 231.2 359.1L243.4 369.6 235.3 370.3 229.9 365.6C229.5 365.3 229 365.4 228.6 365.7 228.6 365.7 228.5 365.8 228.5 365.8 227.9 366.2 227.9 367 228.5 367.4L232.2 370.5 226.3 371C226 370.9 225.9 371 225.7 371.2 225.3 371.4 225.1 371.8 225.2 372 225.2 372.8 225.7 373.3 226.4 373.4L232.2 372.9 229.2 376.3C228.7 376.9 228.7 377.7 229.3 378.1 229.7 378.3 230.5 378.3 230.8 377.9L235.5 372.6 243.4 372 232.9 384.2C232.5 384.8 232.7 385.5 233.1 386 233.5 386.3 234.3 386.3 234.7 385.7ZM259.5 378.3L254.6 371.1 253.9 370 254.4 368.9 258.1 361.2 258.9 359.9 260.2 359.9 268.6 359.3 269.9 359.2 270.6 360.3 275.5 367.5 276.3 368.6 275.7 369.7 272 377.4 271.5 378.5 270 378.7 261.5 379.3 260.2 379.4 259.5 378.3Z"/><path fill="rgba(254, 249, 249, 1)" d="M98.5 54.9L113 43.5 129.3 45.5 119.4 58.7 101.1 61.1C101.1 61.1 100.9 61.2 100.9 61.2 100.5 61.3 100.2 61.9 100.2 62.4 100.3 63.1 100.9 63.6 101.6 63.3L117.5 61.1 112.7 67.5 105.7 68.5C105.7 68.5 105.5 68.6 105.5 68.6 105.1 68.8 104.8 69.4 104.8 69.9 104.9 70.6 105.5 71 106.2 70.8L111 70.2 107.4 74.8C107.1 75.2 107.2 76.1 107.6 76.4 108.1 77 108.9 76.6 109.2 76.2L112.8 71.6 113.4 76.4C113.4 77.1 114.1 77.5 114.7 77.3 115.4 77.2 115.8 76.6 115.6 75.9L114.5 68.9 119.4 62.7 121.6 78.7C121.6 79.4 122.3 79.8 122.9 79.6 123.6 79.5 124.1 78.9 123.8 78.3L121.4 60 131.3 46.9 137.8 62.2 130.8 79.4C130.6 80 130.8 80.6 131.4 80.8 132 81.1 132.6 80.8 132.8 80.2L139 65.1 142.1 72.4 139.5 78.9C139.3 79.4 139.5 80 140.1 80.3 140.7 80.5 141.3 80.3 141.5 79.7L143.3 75.3 145.7 81C145.8 81.7 146.6 81.9 147.2 81.6 147.8 81.4 148 80.8 147.8 80.2L145.5 74.9 149.9 76.6C150.5 76.9 151.1 76.6 151.3 76S151.3 74.8 150.7 74.6L144.3 72 141.2 64.6 156.3 70.8C156.9 71 157.5 70.7 157.8 70.2 158 69.6 157.8 69 157.2 68.7L140 61.8 133.6 46.6 149.9 48.6 160.9 62.8C161.4 63.3 162.1 63.3 162.7 63 163.2 62.5 163.2 61.8 162.9 61.2L153 48.5 160.9 49.5 165.2 55.2C165.7 55.7 166.4 55.7 167 55.4 167.5 54.9 167.5 54.2 167.3 53.8L164.2 50 170.1 50.7C170.6 50.8 171.4 50.4 171.3 49.7 171.3 49 171 48.4 170.3 48.4L164.5 47.8 168.3 44.7C168.8 44.3 168.7 43.6 168.6 43.2 168.2 42.8 167.6 42.6 167.2 42.8 167.2 42.8 167 42.9 167 42.9L161.3 47.2 153.4 46.2 166.1 36.2C166.6 35.8 166.6 35.1 166.4 34.7 166 34.3 165.4 34.1 165 34.3 165 34.3 164.8 34.4 164.8 34.4L150.4 45.8 134.1 43.8 144 30.6 162.2 28.2C162.9 28.2 163.4 27.5 163.1 26.9 163.1 26.2 162.4 25.7 161.8 26L145.8 28.2 150.6 21.8 157.6 20.8C158.3 20.7 158.8 20 158.5 19.4 158.5 18.7 157.8 18.3 157.2 18.5L152.4 19.1 155.9 14.5C156.3 14.1 156.1 13.2 155.7 12.9 155.4 12.5 154.9 12.5 154.5 12.7 154.3 12.8 154 12.9 153.9 13.1L150.3 17.8 149.8 13C149.7 12.3 149 11.8 148.4 12.1 148.4 12.1 148.2 12.2 148.2 12.2 147.8 12.4 147.6 12.9 147.5 13.4L148.6 20.5 143.8 26.8 141.6 10.9C141.6 10.2 140.9 9.7 140.3 10 140.3 10 140.1 10.1 140.1 10.1 139.7 10.3 139.4 10.8 139.4 11.3L141.8 29.6 131.9 42.7 125.5 27.6 132.5 10.4C132.7 9.8 132.5 9.2 131.9 9 131.3 8.7 130.7 9 130.5 9.6L124.2 24.5 121.1 17.1 123.7 10.7C123.9 10.1 123.7 9.5 123.1 9.3S121.9 9.3 121.7 9.9L119.9 14.3 117.7 9C117.4 8.3 116.8 8.1 116.2 8.4 115.6 8.6 115.3 9.2 115.6 9.8L117.9 15.1 113.5 13.4C113.2 13.2 112.9 13.1 112.5 13.3S112 13.8 111.8 14.1C111.6 14.6 111.9 15.3 112.5 15.5L118.9 18.1 122 25.5 106.8 19.3C106.5 19.2 106.3 19.1 105.8 19.3 105.6 19.3 105.3 19.7 105.2 20 105 20.6 105.2 21.2 105.8 21.4L123 28.4 129.4 43.6 113.1 41.5 101.7 27.1C101.3 26.7 100.7 26.5 100.3 26.7 100.3 26.7 100.1 26.8 100.1 26.8 99.6 27.2 99.6 27.9 99.8 28.3L109.7 41 101.8 40 97.5 34.4C97.1 34 96.6 33.8 96.1 34 96.1 34 95.9 34.1 95.9 34.1 95.4 34.5 95.5 35.2 95.6 35.6L98.7 39.4 92.9 38.7C92.6 38.8 92.4 38.7 92.2 38.8 91.7 39 91.4 39.3 91.4 39.8 91.4 40.5 91.7 41.2 92.4 41.1L98.2 41.8 94.5 44.8C93.9 45.3 94 46 94.2 46.4 94.6 46.9 95.3 46.9 95.7 46.7L101.4 42.4 109.3 43.4 96.6 53.3C96.1 53.8 96.1 54.5 96.3 54.9 97.2 55.3 98 55.4 98.5 54.9Z"/><path fill="rgba(87, 90, 128, 1)" d="M90.7 230.9L76.3 242.3 71.3 241.9 66.7 231.5 69.7 227.2 87.9 224.6C88.1 224.5 88.1 224.5 88.3 224.4 88.7 224.2 89.1 223.8 89 223.1 88.7 222.5 88.4 222.2 87.7 222.3L71.7 224.7 76.4 218.2 83.4 217.1C83.4 217.1 83.6 217 83.6 217 84 216.8 84.4 216.4 84.3 215.7 84.3 215.2 83.6 214.8 82.9 214.9L78.3 215.4 81.9 210.7C82.2 210.4 82.1 209.7 81.6 209.1S80.4 209 79.8 209.4L76.5 214.1 75.7 209.5C75.7 208.8 75 208.4 74.3 208.5 73.9 208.7 73.4 209.1 73.4 209.8L74.6 216.8 69.7 223.4 67.3 207.4C67.2 206.7 66.6 206.3 66.1 206.3 65.4 206.5 64.9 207 65 207.7L67.9 225.9 64.7 230.2 53.7 228.9 51.5 224.1 58.1 206.9C58.3 206.3 58 205.7 57.4 205.4S56.2 205.5 56 206.1L50.3 221.2 47 213.7 49.5 207.2C49.7 206.7 49.5 206 48.8 205.6S47.6 205.7 47.4 206.2L45.7 210.8 43.3 205.3C43.1 204.7 42.3 204.6 41.7 204.9 41 205.1 40.8 205.7 41.1 206.3L43.5 211.8 39.1 210.1C38.4 209.7 37.8 209.9 37.7 210.7 37.5 211.3 37.7 211.9 38.3 212.2L44.7 214.7 48.1 222.2 33 216.2C32.4 215.9 31.6 216.3 31.4 216.9S31.4 218.1 32 218.3L49.3 225 51.5 229.9 44.7 238.9 39.6 238.3 28.2 223.9C27.7 223.4 27 223.4 26.4 223.7 25.9 224.2 25.9 224.9 26.2 225.5L36.3 238 28.4 237.1 24 231.5C23.5 231 22.8 231.1 22.2 231.4 21.9 231.7 21.8 232.5 22.2 233L25 236.7 19.2 236.1C18.7 236.1 18.2 236.5 18 237.1 18 237.8 18.5 238.3 19 238.4L24.8 238.9 21.1 242C20.8 242.4 20.6 243.2 21 243.5 21.3 244.1 21.8 244.2 22.4 243.9 22.4 243.9 22.6 243.8 22.6 243.8L28.2 239.4 36.1 240.3 23.6 250.4C23 250.9 22.8 251.5 23.3 252 23.8 252.5 24.3 252.6 24.7 252.4 24.9 252.3 24.9 252.3 24.9 252.3L39.4 240.6 44.5 241.2 49.1 251.6 46 255.6 27.6 258.6C27.1 258.6 26.7 259.2 26.7 259.7 26.8 260.4 27.4 260.9 28.1 260.8L44.1 258.4 39.4 264.8 32.3 266C31.6 266.1 31.1 266.5 31.4 267.1 31.5 267.8 32.1 268.3 32.6 268.3L37.3 267.4 33.8 272.1C33.6 272.7 33.7 273.4 34.1 273.9 34.4 274.1 34.9 274.1 35.3 273.9 35.5 273.8 35.5 273.8 35.7 273.5L39.2 268.8 40 273.5C40.1 274.2 40.7 274.5 41.2 274.5 41.4 274.4 41.4 274.4 41.6 274.3 42 274.1 42.3 273.7 42.3 273.3L41.2 266.2 45.9 259.8 48.3 275.7C48.5 276.3 49 276.9 49.6 276.6 49.9 276.7 49.9 276.7 50.1 276.6 50.5 276.4 50.8 275.9 50.8 275.4L47.8 257 50.9 253 62.1 254.1 64.1 258.8 57.4 276.1C57.2 276.7 57.5 277.5 58.1 277.7S59.5 277.6 59.8 277L65.5 261.9 68.7 269.2 66.3 275.8C66.1 276.4 66.3 277 66.9 277.3 67.5 277.5 68.1 277.2 68.3 276.6L70 272.2 72.5 277.7C72.6 278.1 73.3 278.6 73.9 278.3 74.5 278 74.9 277.2 74.7 276.8L72.3 271.3 76.7 273C77 273.1 77.3 273.2 77.5 273.1 77.9 272.9 78 272.6 78.1 272.3 78.3 271.8 78.1 271.1 77.5 270.9L70.9 268.2 67.7 260.9 82.7 266.9C83 267 83.2 266.9 83.7 266.7 83.9 266.7 84.1 266.6 84.2 266.3 84.4 265.7 84 264.9 83.5 264.6L66.4 257.8 64.3 253.2 70.8 244.2 76.1 244.6 87.6 259.2C88 259.5 88.6 259.7 89 259.6 89.2 259.5 89.2 259.5 89.1 259.3 89.7 259 89.8 258.2 89.4 257.7L79.3 245.1 87.4 245.9 91.8 251.5C92.2 251.8 92.6 251.9 93.1 251.7 93.1 251.7 93.3 251.6 93.3 251.6 93.9 251.3 94 250.5 93.5 250L90.4 246.3 96.3 246.9C96.6 247 96.8 246.9 97 246.8 97.4 246.6 97.7 246.3 97.6 246 97.8 245.3 97.3 244.7 96.7 244.5L90.9 243.9 94.5 241.1C95 240.6 95.1 239.9 94.7 239.3 94.3 239 93.5 238.9 93.2 239.3L87.6 243.7 79.7 242.8 92.2 232.6C92.7 232.2 92.7 231.5 92.4 230.9 92 230.5 91.2 230.4 90.7 230.9ZM65 233.7L68.5 241.6 69 242.8 68.3 243.9 63.3 250.7 62.3 251.9 61 251.7 52.6 250.8 51.3 250.6 50.8 249.4 47.3 241.5 46.8 240.2 47.5 239.2 52.5 232.4 53.3 231.3 54.8 231.4 63.2 232.3 64.5 232.5 65 233.7Z"/><path fill="rgba(254, 249, 249, 1)" d="M415.4 347.5L421.9 350.1 418.4 353.1C418 353.4 417.8 354.1 418.2 354.7 418.7 355.1 419.4 355.2 419.8 354.9L424.5 351 430.6 353.4 420.8 361.3C420.2 361.8 420.1 362.5 420.6 362.9 420.9 363.5 421.6 363.6 422.2 363.1L433 354.4 438.5 356.4 440.6 369.8 436.6 373.1 422.9 367.7C422.7 367.7 422.5 367.7 422.3 367.8 422.1 367.8 421.7 368.1 421.5 368.4 421.1 369.1 421.5 369.7 422.2 369.8L434.6 374.8 429.7 378.8 423.2 376.4C423.2 376.2 422.9 376.2 422.7 376.3 422.3 376.3 421.9 376.6 421.7 377.1 421.6 377.6 421.9 378.2 422.4 378.6L427.7 380.4 421.5 385.5C421.1 385.7 421 386.4 421.3 387.1 421.8 387.4 422.5 387.5 422.9 387.3L428.7 382.5 429.4 387.1C429.5 387.8 430.2 388.1 430.7 388 431.3 387.9 431.9 387.4 431.8 386.7L430.9 380.8 435.9 376.9 437.8 389.1C437.9 389.8 438.5 390.2 439.1 390.1 439.8 390 440.1 389.5 440 388.8L437.9 375.2 442 371.6 454.7 376.6 455.5 381.6 444.6 390.5C444 390.9 443.9 391.8 444.4 392.2 444.7 392.8 445.4 392.7 446 392.3L456 384.2 457 390.6 452 394.5C451.6 394.8 451.5 395.7 451.8 396.1S453 396.6 453.6 396.3L457.4 393.2 458.6 400.9C458.7 401.6 459.5 401.9 460.1 401.8 460.5 401.7 461.1 401.2 461 400.5L459.8 392.8 464.6 394.6C465.1 394.7 465.7 394.6 466 393.9 466.2 393.4 465.8 392.6 465.4 392.4L459.4 390.2 458.4 383.8 470.4 388.5C471.1 388.6 471.7 388.5 472 387.7 472.2 387.3 471.8 386.4 471.4 386.3L457.9 381.2 457.1 376.2 467.7 367.5 472.8 369.6 474.9 383.2C475 383.9 475.5 384.3 476.2 384.2 476.9 384 477.4 383.5 477.3 382.8L475.4 370.6 481.4 372.8 482.3 378.7C482.4 379.3 482.9 379.7 483.6 379.6 484.2 379.5 484.6 379 484.5 378.3L483.8 373.7 490.7 376.4C491.2 376.6 492 376.2 492.2 375.7 492.3 375.1 492.2 374.4 491.5 374.3L484.3 371.4 488.5 368C488.8 367.5 489 366.8 488.7 366.4 488.4 366 487.9 365.9 487.5 365.9 487.5 365.9 487.2 366 487.1 366.2L481.7 370.5 475.7 368.3 486 359.6C486.6 359.3 486.7 358.6 486.2 358 485.9 357.8 485.7 357.7 485.3 357.7 485 357.8 484.8 357.8 484.6 357.8L473.3 367.3 468.5 365.4 466.3 352 470.9 348.3 483.9 353.2C484.6 353.6 485.2 353.2 485.3 352.5 485.7 352 485.4 351.4 484.6 351.1L472.9 346.6 477.9 342.5 483.6 344.7C484.1 344.9 484.7 344.5 485.1 344 485.2 343.3 485.1 342.7 484.4 342.6L480.1 340.8 485.4 336.3C486.1 336 486 335.3 485.6 334.7 485.4 334.5 484.9 334.4 484.5 334.4 484.5 334.4 484.2 334.5 484 334.5L478.3 339.3 477.4 333.8C477.3 333.3 476.8 332.8 476.1 332.9 475.5 333 475.1 333.7 475.2 334.1L476.3 340.9 471.3 345.1 469.2 331.7C469.1 331.1 468.3 330.7 467.7 330.8S466.7 331.4 466.8 332.1L469.1 346.8 464.9 350.2 452.2 345.2 451.3 339.5 462.5 330.5C462.8 330 462.9 329.3 462.6 328.7 462.4 328.5 461.9 328.4 461.5 328.4 461.2 328.5 461 328.5 460.8 328.8L450.9 336.9 449.9 330.5 454.8 326.4C455.2 326.1 455.3 325.4 455 324.7 454.5 324.4 453.8 324.3 453.4 324.6L449.4 327.9 448.3 320.9C448.2 320.4 447.5 319.9 447 319.9 446.4 320 445.8 320.8 445.9 321.3L447 328.3 442.4 326.3C442.2 326.3 442 326.4 441.8 326.4 441.3 326.5 440.9 326.8 440.7 327 440.6 327.7 441 328.3 441.5 328.7L447.4 330.9 448.5 337.3 436.5 332.7C435.7 332.3 435.1 332.6 435 333.1 434.6 333.9 435 334.5 435.5 334.8L448.9 339.9 449.8 345.6 439.2 354.3 434.2 352.4 431.9 337.7C431.8 337 431.3 336.6 430.6 336.7 429.9 336.9 429.6 337.4 429.7 338L431.8 351.4 425.8 349 424.7 342.2C424.6 341.7 423.9 341.2 423.2 341.3 422.6 341.4 422.2 342.1 422.3 342.6L423.2 348.1 416.2 345.3C416 345.4 416 345.4 415.8 345.4 415.3 345.5 414.9 345.8 414.8 346 414.6 346.7 415 347.3 415.4 347.5ZM450.2 348.2L451.4 347.4 452.6 347.9 462.9 351.8 464.1 352.3 464.3 353.6 466.1 364.4 466.3 365.7 465.3 366.5 456.7 373.5 455.7 374.4 454.3 373.9 444.2 369.9 442.8 369.5 442.6 368.1 440.9 357.4 440.7 356.1 441.9 355.2 450.2 348.2Z"/><path fill="rgba(254, 249, 249, 1)" d="M333.8 119.7L347.3 107.1 363.7 107.7 355 121.6 337 125.6C337 125.6 336.8 125.7 336.8 125.7 336.4 125.9 336.2 126.5 336.2 127 336.3 127.7 337 128.1 337.6 127.8L353.3 124.2 349.1 131 342.2 132.7C342.2 132.7 342 132.8 342 132.8 341.6 133 341.4 133.6 341.5 134.1 341.6 134.8 342.3 135.1 342.9 134.8L347.6 133.8 344.4 138.8C344.2 139.2 344.4 140.1 344.8 140.3 345.3 140.8 346.1 140.4 346.4 140L349.5 135.1 350.5 139.8C350.7 140.5 351.4 140.9 351.9 140.6 352.6 140.4 353 139.7 352.7 139.2L351 132.2 355.4 125.7 358.9 141.4C359 142.1 359.8 142.5 360.3 142.1 361 142 361.4 141.3 361.1 140.7L357.1 122.7 365.8 108.8 373.6 123.5 368.2 141.3C368 141.9 368.3 142.5 368.9 142.6 369.5 142.8 370.1 142.5 370.3 141.9L375.1 126.3 378.8 133.3 376.8 140C376.6 140.6 376.9 141.1 377.5 141.3 378.1 141.5 378.7 141.2 378.9 140.6L380.3 136.1 383.2 141.6C383.3 142.3 384.1 142.4 384.7 142 385.3 141.7 385.5 141.1 385.2 140.5L382.4 135.4 386.9 136.8C387.6 137 388.1 136.7 388.3 136.1S388.2 134.9 387.6 134.7L381 132.7 377.2 125.6 392.9 130.4C393.5 130.6 394 130.3 394.2 129.7 394.4 129.1 394.1 128.5 393.5 128.3L375.8 122.9 368.1 108.4 384.5 109 396.7 122.1C397.2 122.6 397.9 122.4 398.5 122.1 399 121.6 398.9 120.9 398.6 120.3L387.5 108.6 395.5 108.9 400.3 114.1C400.8 114.6 401.5 114.5 402.1 114.2 402.6 113.7 402.5 113 402.3 112.6L398.9 109.1 404.8 109.2C405.3 109.2 406 108.8 405.9 108.1 405.8 107.4 405.5 106.8 404.8 107L398.9 106.8 402.4 103.4C402.9 102.9 402.8 102.2 402.6 101.8 402.2 101.6 401.6 101.4 401.2 101.6 401.2 101.6 401 101.7 401 101.7L395.7 106.5 387.8 106.2 399.5 95.2C400 94.7 399.9 94 399.7 93.6 399.3 93.3 398.7 93.1 398.3 93.3 398.3 93.3 398.1 93.4 398.1 93.4L384.7 106.1 368.3 105.5 377 91.5 395 87.5C395.7 87.4 396.1 86.7 395.7 86.1 395.6 85.4 394.9 85 394.3 85.3L378.6 88.9 382.8 82.2 389.7 80.5C390.4 80.4 390.8 79.7 390.5 79.1 390.4 78.4 389.7 78 389.1 78.3L384.3 79.3 387.5 74.4C387.8 74 387.6 73.1 387.2 72.8 386.8 72.5 386.3 72.5 385.9 72.7 385.7 72.8 385.5 72.9 385.4 73.2L382.2 78.2 381.2 73.4C381.1 72.7 380.4 72.4 379.8 72.7 379.8 72.7 379.6 72.8 379.6 72.8 379.2 73 379 73.6 379 74.1L380.7 81 376.5 87.8 372.9 72.1C372.8 71.4 372.1 71 371.5 71.3 371.5 71.3 371.3 71.4 371.3 71.4 370.9 71.6 370.8 72.2 370.8 72.7L374.8 90.7 366.1 104.6 358.4 90.1 363.8 72.4C364 71.8 363.7 71.2 363.1 71 362.5 70.8 361.9 71.1 361.7 71.7L356.8 87.2 353.1 80.1 355.1 73.5C355.3 72.9 354.9 72.3 354.3 72.1S353.2 72.2 353 72.8L351.6 77.3 348.9 72.2C348.6 71.7 348 71.5 347.4 71.8 346.8 72.1 346.6 72.7 346.9 73.3L349.6 78.4 345.1 77C344.8 76.9 344.5 76.8 344.1 77S343.6 77.5 343.6 77.8C343.4 78.4 343.7 79 344.3 79.2L350.9 81.2 354.6 88.3 339 83.5C338.7 83.4 338.4 83.3 338 83.5 337.8 83.7 337.5 84.1 337.4 84.4 337.3 85 337.6 85.5 338.2 85.7L355.9 91.2 363.6 105.7 347.2 105.1 334.5 91.7C334.1 91.4 333.5 91.2 333.1 91.4 333.1 91.4 333 91.5 333 91.5 332.5 92 332.6 92.7 332.8 93.1L343.8 104.9 335.9 104.6 331.1 99.3C330.7 99 330.1 98.9 329.7 99.1 329.7 99.1 329.5 99.2 329.5 99.2 329 99.7 329.1 100.4 329.3 100.8L332.7 104.3 326.8 104.1C326.6 104.2 326.3 104.1 326.1 104.2 325.7 104.4 325.4 104.8 325.4 105.3 325.6 106 325.9 106.6 326.6 106.5L332.4 106.6 328.9 110C328.4 110.5 328.6 111.2 328.8 111.6 329.3 112.1 330 112 330.4 111.8L335.6 107 343.6 107.3 331.8 118.3C331.3 118.8 331.5 119.5 331.7 119.9 332.6 120.2 333.4 120.2 333.8 119.7Z"/><path fill="rgba(107, 116, 218, 1)" d="M90.8 128.1L79.8 136.4 76.1 136 72.8 128.1 75.2 125 88.9 123.3C89 123.3 89 123.3 89.2 123.2 89.5 123.1 89.7 122.8 89.7 122.3 89.5 121.8 89.2 121.6 88.7 121.6L76.7 123.1 80.3 118.4 85.6 117.6C85.6 117.6 85.8 117.6 85.8 117.6 86.1 117.4 86.3 117.2 86.3 116.6 86.3 116.3 85.8 115.9 85.3 116L81.8 116.3 84.6 112.8C84.8 112.6 84.8 112 84.4 111.6S83.5 111.5 83.1 111.8L80.5 115.2 80 111.8C80 111.3 79.5 111 78.9 111 78.6 111.1 78.2 111.5 78.3 112L79 117.3 75.2 122.1 73.7 110.1C73.7 109.6 73.2 109.2 72.8 109.2 72.3 109.4 71.9 109.8 72 110.3L73.8 123.9 71.3 127.1 63.1 126 61.6 122.3 66.8 109.5C67 109.1 66.8 108.6 66.4 108.4S65.5 108.5 65.3 108.9L60.7 120.1 58.4 114.4 60.4 109.7C60.5 109.2 60.4 108.8 59.9 108.4S59 108.4 58.8 108.9L57.5 112.3 55.8 108.1C55.6 107.7 55 107.5 54.5 107.7 54.1 107.9 53.9 108.4 54.1 108.8L55.8 113 52.5 111.6C52 111.3 51.6 111.5 51.4 112.1 51.3 112.5 51.4 113 51.9 113.1L56.7 115.1 59 120.8 47.9 116.1C47.4 115.9 46.8 116.1 46.6 116.6S46.6 117.5 47.1 117.6L59.9 123 61.4 126.7 56.2 133.3 52.4 132.8 44.1 121.8C43.7 121.4 43.2 121.4 42.7 121.6 42.3 121.9 42.4 122.5 42.6 122.9L49.9 132.5 44 131.7 40.8 127.4C40.5 127 40 127.1 39.5 127.3 39.2 127.5 39.1 128.1 39.5 128.5L41.5 131.3 37.1 130.7C36.8 130.7 36.4 131.1 36.2 131.5 36.2 132 36.6 132.4 36.9 132.4L41.3 133 38.5 135.2C38.2 135.5 38.1 136.1 38.4 136.4 38.6 136.8 38.9 136.9 39.4 136.7 39.4 136.7 39.6 136.6 39.6 136.6L43.8 133.4 49.7 134.2 40.2 141.6C39.8 141.9 39.6 142.4 39.9 142.8 40.3 143.2 40.6 143.2 40.9 143.1 41.1 143 41.1 143 41.1 143L52.2 134.5 56 135 59.3 142.9 56.9 145.9 43.1 147.8C42.7 147.7 42.4 148.2 42.3 148.6 42.4 149.1 42.9 149.5 43.4 149.4L55.4 147.9 51.7 152.7 46.5 153.4C45.9 153.4 45.5 153.8 45.7 154.2 45.8 154.8 46.3 155.1 46.6 155.1L50.2 154.6 47.5 158C47.3 158.5 47.3 159 47.7 159.4 47.9 159.5 48.3 159.5 48.6 159.4 48.7 159.3 48.7 159.3 48.8 159.1L51.5 155.6 52.1 159.2C52.1 159.7 52.6 159.9 52.9 159.9 53.1 159.9 53.1 159.9 53.2 159.8 53.6 159.7 53.8 159.4 53.8 159L53.1 153.7 56.7 149 58.2 161C58.4 161.5 58.8 161.9 59.2 161.7 59.5 161.8 59.5 161.8 59.6 161.7 59.9 161.6 60.1 161.1 60.1 160.8L58.2 146.9 60.6 144 69 145 70.4 148.6 65.1 161.4C64.9 161.9 65.2 162.5 65.6 162.6S66.6 162.6 66.8 162.1L71.4 150.9 73.7 156.4 71.7 161.4C71.6 161.8 71.7 162.3 72.2 162.5 72.6 162.6 73.1 162.5 73.3 162L74.6 158.8 76.3 162.9C76.5 163.2 77 163.6 77.4 163.4 77.9 163.2 78.2 162.5 78 162.2L76.3 158.1 79.6 159.4C79.8 159.5 80 159.6 80.2 159.5 80.5 159.4 80.6 159.2 80.7 159 80.8 158.5 80.6 158.1 80.2 157.9L75.4 155.7 73.1 150.2 84.2 155C84.5 155.1 84.6 155 84.9 154.9 85.1 154.8 85.2 154.7 85.3 154.5 85.5 154.1 85.2 153.5 84.8 153.3L72.1 147.9 70.7 144.3 75.7 137.8 79.6 138.1 88 149.3C88.3 149.5 88.7 149.7 89 149.6 89.2 149.5 89.2 149.5 89.1 149.4 89.6 149.2 89.7 148.6 89.4 148.2L82 138.6 88.1 139.3 91.3 143.6C91.6 143.9 91.9 143.9 92.2 143.8 92.2 143.8 92.4 143.7 92.4 143.7 92.9 143.5 93 142.9 92.6 142.5L90.4 139.7 94.7 140.2C95 140.3 95.1 140.2 95.3 140.2 95.6 140 95.8 139.8 95.8 139.6 95.9 139 95.5 138.6 95.1 138.4L90.7 137.9 93.5 135.8C93.9 135.5 94 134.9 93.7 134.5 93.4 134.3 92.8 134.2 92.5 134.4L88.3 137.6 82.4 136.8 91.9 129.5C92.3 129.1 92.3 128.6 92.1 128.1 91.8 127.9 91.2 127.8 90.8 128.1ZM71.5 129.8L74 135.8 74.4 136.7 73.8 137.5 69.9 142.5 69.2 143.3 68.2 143.2 61.9 142.4 61 142.2 60.6 141.3 58.1 135.3 57.7 134.3 58.3 133.6 62.2 128.5 62.8 127.8 63.9 127.8 70.2 128.7 71.1 128.8 71.5 129.8Z"/><path fill="rgba(87, 90, 128, 1)" d="M318.7 3.8L315.4 4.7 315.9 2.4C315.9 2.2 315.8 1.9 315.5 1.7 315.1 1.7 314.8 1.9 314.8 2.1L314.1 5.1 310.9 6 312.4-0.1C312.5-0.5 312.3-0.8 312-0.8 311.7-0.9 311.4-0.7 311.3-0.3L309.7 6.4 306.9 7.3 302 2.6 302.5 0.1 309.6-1.9C309.7-2 309.8-2.1 309.8-2.2 309.9-2.3 310-2.5 310-2.7 309.9-3.1 309.6-3.2 309.3-3L302.8-1.2 303.6-4.3 306.8-5.3C306.9-5.2 307-5.3 307.1-5.4 307.2-5.6 307.3-5.8 307.2-6 307.1-6.3 306.8-6.4 306.5-6.4L303.8-5.5 304.7-9.4C304.8-9.7 304.6-10 304.3-10.1 304-10.1 303.7-9.9 303.6-9.7L302.8-6.1 301.1-7.7C300.9-7.9 300.5-7.8 300.3-7.6 300.1-7.4 300-7 300.3-6.8L302.4-4.7 301.7-1.6 297.1-5.9C296.9-6.1 296.6-6.1 296.4-5.9 296.1-5.6 296.1-5.3 296.4-5.1L301.4-0.4 300.8 2.3 294.3 4.2 292.4 2.5 294-4.4C294.2-4.7 293.9-5.1 293.6-5.1 293.3-5.2 293.1-5 292.9-4.7L291.5 1.6 289.1-0.6 289.9-3.7C290-4 289.7-4.3 289.5-4.4S288.9-4.2 288.7-3.9L288.2-1.5 285.3-4.2C285.1-4.4 284.7-4.3 284.5-4.1 284.3-3.9 284.2-3.5 284.5-3.3L287.3-0.7 284.9 0.1C284.7 0.2 284.4 0.5 284.5 0.8 284.6 1.1 285 1.3 285.3 1.2L288.3 0.3 290.6 2.5 284.5 4.3C284.2 4.5 283.9 4.7 284 5.1 284.1 5.3 284.5 5.6 284.8 5.5L291.6 3.4 293.5 5.1 291.9 11.8 289.3 12.5 284.3 7.8C284 7.5 283.7 7.6 283.5 7.8 283.3 8 283.2 8.4 283.4 8.7L288 12.9 284.9 13.9 282.7 11.8C282.5 11.6 282.2 11.6 282 11.9 281.7 12.1 281.7 12.4 282 12.6L283.7 14.2 280.1 15.3C279.9 15.4 279.6 15.8 279.7 16 279.9 16.3 280.1 16.5 280.4 16.4L284.2 15.3 283.6 17.9C283.6 18.2 283.7 18.6 284 18.6 284.2 18.7 284.4 18.6 284.6 18.5 284.6 18.5 284.7 18.4 284.7 18.2L285.5 14.9 288.5 13.9 287.1 20.5C286.9 20.8 287.1 21.1 287.5 21.2 287.7 21.2 287.8 21.2 288 21 288 20.9 288.1 20.9 288.2 20.8L289.8 13.6 292.3 12.9 297.2 17.5 296.5 20.4 289.9 22.4C289.5 22.5 289.4 22.8 289.5 23.1 289.5 23.4 289.9 23.6 290.2 23.5L296.2 21.6 295.6 24.8 292.6 25.7C292.4 25.8 292.2 26.1 292.2 26.4 292.4 26.7 292.6 26.9 292.9 26.8L295.2 26.2 294.4 29.6C294.3 29.9 294.5 30.1 294.8 30.2 295 30.2 295.2 30.2 295.4 30 295.4 30 295.5 29.9 295.5 29.8L296.4 26.2 298.4 28.1C298.6 28.3 299 28.3 299.2 28.1 299.4 27.8 299.3 27.4 299.2 27.3L296.7 24.9 297.3 21.8 302.3 26.4C302.5 26.6 302.9 26.5 303.1 26.3S303.4 25.7 303.1 25.5L297.7 20.4 298.3 17.8 304.9 15.9 307 17.9 305.3 24.8C305.3 25.1 305.5 25.5 305.8 25.6 306 25.6 306.2 25.5 306.3 25.3 306.4 25.3 306.5 25.2 306.5 25L307.9 18.8 310.3 21 309.6 24.1C309.5 24.4 309.7 24.7 310 24.8 310.3 24.8 310.6 24.7 310.7 24.4L311.3 21.9 313.9 24.3C314 24.5 314.5 24.5 314.6 24.3 314.9 24.1 314.9 23.6 314.7 23.4L312.1 21 314.5 20.4C314.6 20.3 314.7 20.2 314.7 20.1 314.9 20 315 19.7 315 19.6 314.8 19.3 314.5 19.1 314.2 19.1L311.1 20.1 308.8 17.9 314.9 16C315.3 16 315.5 15.6 315.4 15.4 315.3 15 315 14.9 314.7 14.9L307.8 17 305.7 15 307.2 8.3 309.8 7.6 315.2 12.7C315.5 12.9 315.8 12.9 316 12.6 316.2 12.4 316.2 12.1 316 11.9L311.1 7.2 314.2 6.3 316.7 8.7C316.8 8.8 317.3 8.8 317.5 8.6 317.8 8.3 317.7 7.9 317.5 7.8L315.5 5.9 319.1 4.8C319.2 4.8 319.2 4.8 319.2 4.7 319.4 4.5 319.5 4.3 319.5 4.1 319.3 3.8 319 3.7 318.7 3.8ZM304.7 14.1L304.5 14.8 303.9 15 298.6 16.5 298 16.7 297.5 16.3 293.5 12.5 293 12.1 293.2 11.4 294.4 6.1 294.6 5.4 295.3 5.2 300.5 3.7 301.2 3.4 301.7 3.9 305.6 7.6 306.1 8.1 305.9 8.8 304.7 14.1Z"/><path fill="rgba(107, 116, 218, 1)" d="M216.8 231.4L213.6 225.3 218.3 225.3C218.8 225.3 219.3 224.9 219.5 224.2 219.3 223.6 218.9 223 218.4 223L212.2 222.9 209.2 217.1 221.7 217.5C222.5 217.5 223.1 217 222.9 216.4 223.1 215.7 222.6 215.2 221.8 215.2L208 214.8 205.2 209.7 212.3 198.1 217.4 198.2 224.3 211.2C224.5 211.4 224.7 211.5 224.9 211.6 225 211.7 225.5 211.8 225.8 211.7 226.6 211.3 226.7 210.7 226.3 210.1L220 198.2 226.4 198.5 229.8 204.4C229.6 204.6 229.8 204.7 230 204.9 230.4 205.1 230.9 205.1 231.3 204.9 231.7 204.6 231.9 203.9 231.8 203.3L229 198.5 236.9 198.7C237.4 198.7 238 198.3 238.1 197.6 238 197 237.5 196.4 237 196.4L229.6 196.2 232 192.3C232.4 191.7 232 191 231.7 190.7 231.1 190.4 230.3 190.4 229.9 191L226.8 196.1 220.4 195.8 226.9 185.2C227.3 184.7 227.1 184.1 226.6 183.7 226 183.4 225.4 183.5 225 184.1L217.8 195.8 212.4 195.8 205.9 183.8 208.6 179.5 222.7 179.8C223.4 179.9 224.1 179.3 223.9 178.7 224.1 178 223.5 177.7 222.8 177.5L210 177.2 213.4 171.7 219.7 171.9C220.2 172 220.9 171.3 220.9 170.9S220.3 169.7 219.6 169.5L214.8 169.4 218.8 162.8C219.2 162.2 218.8 161.5 218.3 161.1 217.9 160.9 217.1 160.9 216.7 161.5L212.7 168.1 210.2 163.7C209.9 163.3 209.3 163 208.6 163.3 208.2 163.6 207.9 164.4 208.2 164.9L211.3 170.4 207.9 175.9 201.8 164.6C201.3 164.1 200.8 163.7 200.1 164.1 199.6 164.3 199.4 165.2 199.6 165.6L206.5 178.2 203.8 182.5 190.2 182.2 187.7 177.3 194.9 165.6C195.3 165 195.1 164.4 194.6 164.1 194 163.7 193.2 163.8 192.8 164.3L186.3 174.9 183.2 169.4 186.4 164.3C186.7 163.7 186.6 163.1 186 162.7 185.4 162.4 184.8 162.5 184.5 163.1L182 167.1 178.5 160.5C178.3 160.1 177.4 159.8 177 160.1 176.4 160.5 176.1 161.1 176.5 161.6L180.1 168.5 174.7 168.3C174.1 168.5 173.6 168.9 173.6 169.4 173.5 169.9 173.8 170.3 174.1 170.6 174.1 170.6 174.3 170.7 174.6 170.6L181.5 170.9 184.6 176.5 171.2 176.3C170.5 176.1 169.9 176.6 170 177.4 170 177.7 170.1 178 170.5 178.2 170.7 178.4 170.9 178.5 171.1 178.6L185.8 178.8 188.2 183.4 181.1 194.9 175.2 194.7 168.6 182.6C168.3 181.8 167.6 181.7 167.1 182.1 166.4 182.3 166.3 183 166.6 183.7L172.7 194.7 166.2 194.6 163.3 189.2C163 188.8 162.3 188.6 161.7 188.8 161.2 189.2 160.8 189.8 161.3 190.3L163.4 194.5 156.4 194.4C155.7 194.2 155.4 194.8 155.2 195.5 155.3 195.8 155.6 196.2 155.9 196.4 155.9 196.4 156.1 196.5 156.3 196.7L163.8 196.8 160.9 201.5C160.7 201.9 160.7 202.7 161.3 203.1 161.8 203.4 162.5 203.1 162.8 202.7L166.4 196.8 172.9 196.9 165.8 208.5C165.4 209 165.8 209.8 166.3 210.1S167.5 210.3 167.9 209.7L175.6 197 181 197.2 187.4 209.2 184.4 214.2 170.1 213.7C169.5 213.9 169 214.3 168.8 215 168.9 215.3 169.1 215.7 169.5 216 169.7 216.1 169.9 216.2 170.2 216.1L183 216.4 179.7 221.9 173.2 221.9C172.7 221.8 172.2 222.3 172 223 172.1 223.6 172.6 224.1 173.1 224.2L178.3 224.2 174.6 230.3C174.3 230.6 174.5 231.6 174.9 231.8 175.5 232.1 176.4 231.9 176.6 231.5L180.4 225.5 182.6 230C182.7 230.1 182.9 230.2 183.1 230.3 183.5 230.5 184 230.6 184.3 230.5 184.8 230.1 185 229.4 184.9 228.8L181.7 223.2 185.1 217.7 191.2 229C191.6 229.8 192.2 229.9 192.7 229.6 193.4 229.3 193.5 228.6 193.4 228L186.5 215.4 189.5 210.5 203.2 210.8 205.8 215.5 198 228.2C197.6 228.8 197.8 229.4 198.3 229.7 198.9 230.1 199.5 229.9 199.9 229.4L207 217.8 209.9 223.6 206.3 229.4C206.1 229.8 206.3 230.7 206.9 231.1 207.5 231.4 208.2 231.1 208.4 230.7L211.3 226 214.9 232.6C215 232.7 215 232.7 215.2 232.8 215.6 233 216.1 233.1 216.4 233 216.9 232.6 217.1 231.9 216.8 231.4ZM190.9 208.2L189.4 208.1 188.8 207 183.6 197.2 183 196.1 183.7 195 189.4 185.7 190.1 184.5 191.4 184.5 202.4 184.8 203.7 184.8 204.5 186.1 209.6 195.7 210.4 197 209.7 198.1 204 207.4 203.3 208.5 201.8 208.4 190.9 208.2Z"/></g><defs><mask id="SvgjsMask1032"><rect width="500" height="500" fill="#fff"/></mask><filter id="SvgjsFilter1033"><feGaussianBlur stdDeviation="1"/></filter></defs></svg>