<svg xmlns="http://www.w3.org/2000/svg" version="1.1" xmlns:xlink="http://www.w3.org/1999/xlink" xmlns:svgjs="http://svgjs.com/svgjs" width="500" height="560" preserveAspectRatio="none" viewBox="0 0 500 560"><g mask="url(&quot;#SvgjsMask1205&quot;)" fill="none"><rect width="500" height="560" x="0" y="0" fill="rgba(0, 0, 0, 1)"></rect><g transform="translate(-5, 168)" stroke-linecap="round"><path d="M12.5 231.405 L12.5 328.605" stroke-width="14.25" stroke="rgba(240, 241, 252, 1)"></path><path d="M31.5 79.745 L31.5 207.995" stroke-width="14.25" stroke="rgba(240, 241, 252, 1)"></path><path d="M31.5 229.37 L31.5 480.255" stroke-width="14.25" stroke="rgba(240, 241, 252, 1)"></path><path d="M50.5 54.755 L50.5 183.005" stroke-width="14.25" stroke="rgba(240, 241, 252, 1)"></path><path d="M50.5 204.38 L50.5 332.63" stroke-width="14.25" stroke="rgba(240, 241, 252, 1)"></path><path d="M50.5 354.005 L50.5 505.245" stroke-width="14.25" stroke="rgba(240, 241, 252, 1)"></path><path d="M69.5 37.055 L69.5 350.555" stroke-width="14.25" stroke="rgba(240, 241, 252, 1)"></path><path d="M69.5 371.93 L69.5 471.68" stroke-width="14.25" stroke="rgba(240, 241, 252, 1)"></path><path d="M69.5 493.055 L69.5 522.945" stroke-width="14.25" stroke="#3a7cc3"></path><path d="M88.5 209.745 L88.5 295.245" stroke-width="14.25" stroke="rgba(240, 241, 252, 1)"></path><path d="M88.5 316.62 L88.5 350.255" stroke-width="14.25" stroke="#3a7cc3"></path><path d="M107.5 23.845 L107.5 294.595" stroke-width="14.25" stroke="rgba(240, 241, 252, 1)"></path><path d="M107.5 315.97 L107.5 415.72" stroke-width="14.25" stroke="rgba(240, 241, 252, 1)"></path><path d="M107.5 437.095 L107.5 536.155" stroke-width="14.25" stroke="rgba(240, 241, 252, 1)"></path><path d="M126.5 69.125 L126.5 111.875" stroke-width="14.25" stroke="rgba(240, 241, 252, 1)"></path><path d="M126.5 133.25 L126.5 490.875" stroke-width="14.25" stroke="#3a7cc3"></path><path d="M145.5 44.005 L145.5 357.505" stroke-width="14.25" stroke="#3a7cc3"></path><path d="M145.5 378.88 L145.5 435.88" stroke-width="14.25" stroke="#3a7cc3"></path><path d="M145.5 457.255 L145.5 515.995" stroke-width="14.25" stroke="#3a7cc3"></path><path d="M164.5 45.585 L164.5 259.335" stroke-width="14.25" stroke="rgba(240, 241, 252, 1)"></path><path d="M164.5 280.71 L164.5 408.96" stroke-width="14.25" stroke="rgba(240, 241, 252, 1)"></path><path d="M164.5 430.335 L164.5 514.415" stroke-width="14.25" stroke="rgba(240, 241, 252, 1)"></path><path d="M183.5 176.395 L183.5 233.395" stroke-width="14.25" stroke="#3a7cc3"></path><path d="M183.5 254.77 L183.5 283.27" stroke-width="14.25" stroke="#3a7cc3"></path><path d="M183.5 304.645 L183.5 383.605" stroke-width="14.25" stroke="rgba(240, 241, 252, 1)"></path><path d="M202.5 120.875 L202.5 439.125" stroke-width="14.25" stroke="#3a7cc3"></path><path d="M221.5 150.615 L221.5 221.865" stroke-width="14.25" stroke="rgba(240, 241, 252, 1)"></path><path d="M221.5 243.24 L221.5 314.49" stroke-width="14.25" stroke="#3a7cc3"></path><path d="M221.5 335.865 L221.5 409.385" stroke-width="14.25" stroke="#3a7cc3"></path><path d="M240.5 222.635 L240.5 251.135" stroke-width="14.25" stroke="#3a7cc3"></path><path d="M240.5 272.51 L240.5 337.365" stroke-width="14.25" stroke="rgba(240, 241, 252, 1)"></path><path d="M259.5 30.015 L259.5 529.985" stroke-width="14.25" stroke="rgba(240, 241, 252, 1)"></path><path d="M278.5 158.995 L278.5 315.745" stroke-width="14.25" stroke="rgba(240, 241, 252, 1)"></path><path d="M278.5 337.12 L278.5 351.37" stroke-width="14.25" stroke="#3a7cc3"></path><path d="M278.5 372.745 L278.5 401.005" stroke-width="14.25" stroke="#3a7cc3"></path><path d="M297.5 13.504999999999999 L297.5 546.505" stroke-width="14.25" stroke="#3a7cc3"></path><path d="M316.5 195.455 L316.5 238.205" stroke-width="14.25" stroke="#3a7cc3"></path><path d="M316.5 259.58000000000004 L316.5 302.33000000000004" stroke-width="14.25" stroke="#3a7cc3"></path><path d="M316.5 323.70500000000004 L316.5 364.545" stroke-width="14.25" stroke="rgba(240, 241, 252, 1)"></path><path d="M335.5 174.455 L335.5 385.545" stroke-width="14.25" stroke="rgba(240, 241, 252, 1)"></path><path d="M354.5 140.695 L354.5 183.445" stroke-width="14.25" stroke="#3a7cc3"></path><path d="M354.5 204.82 L354.5 261.82" stroke-width="14.25" stroke="#3a7cc3"></path><path d="M354.5 283.195 L354.5 419.305" stroke-width="14.25" stroke="rgba(240, 241, 252, 1)"></path><path d="M373.5 236.465 L373.5 250.715" stroke-width="14.25" stroke="rgba(240, 241, 252, 1)"></path><path d="M373.5 272.09000000000003 L373.5 286.34000000000003" stroke-width="14.25" stroke="#3a7cc3"></path><path d="M373.5 307.71500000000003 L373.5 323.525" stroke-width="14.25" stroke="#3a7cc3"></path><path d="M392.5 218.055 L392.5 246.555" stroke-width="14.25" stroke="#3a7cc3"></path><path d="M392.5 267.93 L392.5 296.43" stroke-width="14.25" stroke="rgba(240, 241, 252, 1)"></path><path d="M392.5 317.805 L392.5 341.945" stroke-width="14.25" stroke="rgba(240, 241, 252, 1)"></path><path d="M411.5 139.485 L411.5 367.485" stroke-width="14.25" stroke="#3a7cc3"></path><path d="M411.5 388.86 L411.5 420.515" stroke-width="14.25" stroke="#3a7cc3"></path><path d="M430.5 92.245 L430.5 467.755" stroke-width="14.25" stroke="#3a7cc3"></path><path d="M449.5 236.095 L449.5 250.345" stroke-width="14.25" stroke="#3a7cc3"></path><path d="M449.5 271.72 L449.5 285.97" stroke-width="14.25" stroke="#3a7cc3"></path><path d="M449.5 307.345 L449.5 323.905" stroke-width="14.25" stroke="rgba(240, 241, 252, 1)"></path><path d="M468.5 88.265 L468.5 116.765" stroke-width="14.25" stroke="#3a7cc3"></path><path d="M468.5 138.14 L468.5 294.89" stroke-width="14.25" stroke="rgba(240, 241, 252, 1)"></path><path d="M468.5 316.265 L468.5 471.735" stroke-width="14.25" stroke="#3a7cc3"></path><path d="M487.5 35.144999999999996 L487.5 177.645" stroke-width="14.25" stroke="rgba(240, 241, 252, 1)"></path><path d="M487.5 199.02 L487.5 313.02" stroke-width="14.25" stroke="#3a7cc3"></path><path d="M487.5 334.395 L487.5 524.855" stroke-width="14.25" stroke="rgba(240, 241, 252, 1)"></path></g></g><defs><mask id="SvgjsMask1205"><rect width="500" height="560" fill="#ffffff"></rect></mask></defs></svg>