<svg xmlns="http://www.w3.org/2000/svg" version="1.1" xmlns:xlink="http://www.w3.org/1999/xlink" xmlns:svgjs="http://svgjs.com/svgjs" width="500" height="560" preserveAspectRatio="none" viewBox="0 0 500 560"><g mask="url(&quot;#SvgjsMask1197&quot;)" fill="none"><rect width="500" height="560" x="0" y="0" fill="rgba(0, 0, 0, 1)"></rect><g transform="translate(-5, 168)" stroke-linecap="round"><path d="M12.5 110.84 L12.5 449.15" stroke-width="14.25" stroke="#3a7cc3"></path><path d="M31.5 232.65 L31.5 327.36" stroke-width="14.25" stroke="#dd1133"></path><path d="M50.5 177.61 L50.5 382.39" stroke-width="14.25" stroke="#dd1133"></path><path d="M69.5 77.09 L69.5 482.9" stroke-width="14.25" stroke="rgba(240, 241, 252, 1)"></path><path d="M88.5 200.74 L88.5 359.26" stroke-width="14.25" stroke="#3a7cc3"></path><path d="M107.5 88.79 L107.5 471.21" stroke-width="14.25" stroke="#3a7cc3"></path><path d="M126.5 67.56 L126.5 492.44" stroke-width="14.25" stroke="#dd1133"></path><path d="M145.5 85.87 L145.5 474.13" stroke-width="14.25" stroke="#dd1133"></path><path d="M164.5 94.94 L164.5 465.06" stroke-width="14.25" stroke="#3a7cc3"></path><path d="M183.5 83 L183.5 477" stroke-width="14.25" stroke="#3a7cc3"></path><path d="M202.5 79.19 L202.5 480.81" stroke-width="14.25" stroke="#dd1133"></path><path d="M221.5 117.3 L221.5 442.7" stroke-width="14.25" stroke="rgba(240, 241, 252, 1)"></path><path d="M240.5 17.94 L240.5 542.06" stroke-width="14.25" stroke="rgba(240, 241, 252, 1)"></path><path d="M259.5 188.16 L259.5 371.84" stroke-width="14.25" stroke="rgba(240, 241, 252, 1)"></path><path d="M278.5 54.31 L278.5 505.69" stroke-width="14.25" stroke="rgba(240, 241, 252, 1)"></path><path d="M297.5 91.16 L297.5 468.84" stroke-width="14.25" stroke="#dd1133"></path><path d="M316.5 62.77 L316.5 497.23" stroke-width="14.25" stroke="#dd1133"></path><path d="M335.5 83.72 L335.5 476.28" stroke-width="14.25" stroke="rgba(240, 241, 252, 1)"></path><path d="M354.5 100.25 L354.5 459.75" stroke-width="14.25" stroke="rgba(240, 241, 252, 1)"></path><path d="M373.5 149.48 L373.5 410.52" stroke-width="14.25" stroke="#dd1133"></path><path d="M392.5 178.47 L392.5 381.52" stroke-width="14.25" stroke="#3a7cc3"></path><path d="M411.5 244.53 L411.5 315.47" stroke-width="14.25" stroke="#dd1133"></path><path d="M430.5 150.85 L430.5 409.14" stroke-width="14.25" stroke="#dd1133"></path><path d="M449.5 87.55 L449.5 472.45" stroke-width="14.25" stroke="rgba(240, 241, 252, 1)"></path><path d="M468.5 70.63 L468.5 489.37" stroke-width="14.25" stroke="#3a7cc3"></path><path d="M487.5 181.14 L487.5 378.86" stroke-width="14.25" stroke="#3a7cc3"></path></g></g><defs><mask id="SvgjsMask1197"><rect width="500" height="560" fill="#ffffff"></rect></mask></defs></svg>