<svg xmlns="http://www.w3.org/2000/svg" width="2000" height="2000" viewBox="0 0 800 800"><rect width="800" height="800" fill="#002"/><g fill="none"><g stroke="#026" stroke-width="17"><line x1="-8" x2="808" y1="-8" y2="808"/><line x1="-8" x2="808" y1="792" y2="1608"/><line x1="-8" x2="808" y1="-808" y2="8"/></g><g stroke="#002163" stroke-width="16"><line x1="-8" x2="808" y1="767" y2="1583"/><line x1="-8" x2="808" y1="17" y2="833"/><line x1="-8" x2="808" y1="-33" y2="783"/><line x1="-8" x2="808" y1="-783" y2="33"/></g><g stroke="#002060" stroke-width="15"><line x1="-8" x2="808" y1="742" y2="1558"/><line x1="-8" x2="808" y1="42" y2="858"/><line x1="-8" x2="808" y1="-58" y2="758"/><line x1="-8" x2="808" y1="-758" y2="58"/></g><g stroke="#001f5c" stroke-width="14"><line x1="-8" x2="808" y1="67" y2="883"/><line x1="-8" x2="808" y1="717" y2="1533"/><line x1="-8" x2="808" y1="-733" y2="83"/><line x1="-8" x2="808" y1="-83" y2="733"/></g><g stroke="#001e59" stroke-width="13"><line x1="-8" x2="808" y1="92" y2="908"/><line x1="-8" x2="808" y1="692" y2="1508"/><line x1="-8" x2="808" y1="-108" y2="708"/><line x1="-8" x2="808" y1="-708" y2="108"/></g><g stroke="#001d56" stroke-width="12"><line x1="-8" x2="808" y1="667" y2="1483"/><line x1="-8" x2="808" y1="117" y2="933"/><line x1="-8" x2="808" y1="-133" y2="683"/><line x1="-8" x2="808" y1="-683" y2="133"/></g><g stroke="#001c53" stroke-width="11"><line x1="-8" x2="808" y1="642" y2="1458"/><line x1="-8" x2="808" y1="142" y2="958"/><line x1="-8" x2="808" y1="-158" y2="658"/><line x1="-8" x2="808" y1="-658" y2="158"/></g><g stroke="#001b4f" stroke-width="10"><line x1="-8" x2="808" y1="167" y2="983"/><line x1="-8" x2="808" y1="617" y2="1433"/><line x1="-8" x2="808" y1="-633" y2="183"/><line x1="-8" x2="808" y1="-183" y2="633"/></g><g stroke="#001a4c" stroke-width="9"><line x1="-8" x2="808" y1="592" y2="1408"/><line x1="-8" x2="808" y1="192" y2="1008"/><line x1="-8" x2="808" y1="-608" y2="208"/><line x1="-8" x2="808" y1="-208" y2="608"/></g><g stroke="#001949" stroke-width="8"><line x1="-8" x2="808" y1="567" y2="1383"/><line x1="-8" x2="808" y1="217" y2="1033"/><line x1="-8" x2="808" y1="-233" y2="583"/><line x1="-8" x2="808" y1="-583" y2="233"/></g><g stroke="#001846" stroke-width="7"><line x1="-8" x2="808" y1="242" y2="1058"/><line x1="-8" x2="808" y1="542" y2="1358"/><line x1="-8" x2="808" y1="-558" y2="258"/><line x1="-8" x2="808" y1="-258" y2="558"/></g><g stroke="#001743" stroke-width="6"><line x1="-8" x2="808" y1="267" y2="1083"/><line x1="-8" x2="808" y1="517" y2="1333"/><line x1="-8" x2="808" y1="-533" y2="283"/><line x1="-8" x2="808" y1="-283" y2="533"/></g><g stroke="#00163f" stroke-width="5"><line x1="-8" x2="808" y1="292" y2="1108"/><line x1="-8" x2="808" y1="492" y2="1308"/><line x1="-8" x2="808" y1="-308" y2="508"/><line x1="-8" x2="808" y1="-508" y2="308"/></g><g stroke="#00153c" stroke-width="4"><line x1="-8" x2="808" y1="467" y2="1283"/><line x1="-8" x2="808" y1="317" y2="1133"/><line x1="-8" x2="808" y1="-333" y2="483"/><line x1="-8" x2="808" y1="-483" y2="333"/></g><g stroke="#001439" stroke-width="3"><line x1="-8" x2="808" y1="342" y2="1158"/><line x1="-8" x2="808" y1="442" y2="1258"/><line x1="-8" x2="808" y1="-458" y2="358"/><line x1="-8" x2="808" y1="-358" y2="458"/></g><g stroke="#001336" stroke-width="2"><line x1="-8" x2="808" y1="367" y2="1183"/><line x1="-8" x2="808" y1="417" y2="1233"/><line x1="-8" x2="808" y1="-433" y2="383"/><line x1="-8" x2="808" y1="-383" y2="433"/></g><g stroke="#013" stroke-width="1"><line x1="-8" x2="808" y1="392" y2="1208"/><line x1="-8" x2="808" y1="-408" y2="408"/></g></g></svg>