<svg id="a0f4c522-d0e8-404b-95f8-59a6be9d5f61" data-name="Layer 1" xmlns="http://www.w3.org/2000/svg" width="985.58672" height="661.15246" viewBox="0 0 985.58672 661.15246"><title>book_reading</title><rect x="27.52452" y="640.30491" width="929" height="2" fill="#3f3d56"/><rect x="634.23122" y="123.65246" width="1.99988" height="928.99999" transform="translate(-261.09314 815.30387) rotate(-67.07803)" fill="#3f3d56"/><rect x="27.52452" y="277.30491" width="929" height="2" fill="#3f3d56"/><path d="M937.73116,449.65246a322.06753,322.06753,0,0,1-93.73,228.11q-4.93506,4.965-10.09,9.7-6.21,5.73-12.74,11.11c-.83.69-1.66,1.37-2.5,2.04a313.73111,313.73111,0,0,1-55.56,36.03c-1.17.59-2.34,1.18-3.52,1.76-1.87.92-3.76,1.82-5.65,2.7a311.18017,311.18017,0,0,1-223.25,15.15c-129.07-40.06-222.96-162.17-222.96-306.6,0-177.01,141.03-320.5,315-320.5S937.73116,272.64245,937.73116,449.65246Z" transform="translate(-107.20664 -128.84754)" fill="#6c63ff"/><path d="M692.86575,382.41884l.25017-.00978-.98654-2.166a60.49185,60.49185,0,0,0-4.04939-8.8911L659.14532,307.8217a11.44275,11.44275,0,0,0-10.60414-6.6983l-36.64368.61046a11.44267,11.44267,0,0,0-10.666,7.82629l-23.03631,69.18794a60.396,60.396,0,0,0-1.97059,5.9183l-.78211,2.34909.18367-.00718a60.852,60.852,0,1,0,117.23963-4.58946Z" transform="translate(-107.20664 -128.84754)" fill="#3f3d56"/><rect x="587.4201" y="348.24504" width="64.07988" height="1.32275" transform="translate(57.5742 766.62382) rotate(-79.63351)" fill="#6c63ff"/><rect x="643.92938" y="316.44781" width="1.32275" height="64.07988" transform="translate(-166.52235 16.03118) rotate(-12.26435)" fill="#6c63ff"/><path d="M607.90381,270.709l46.95475-.78223a1.32285,1.32285,0,0,1,.04406,2.64534l-46.95474.78223a1.32285,1.32285,0,1,1-.04407-2.64534Z" transform="translate(-107.20664 -128.84754)" fill="#3f3d56"/><path d="M608.39973,280.62355l46.95475-.78223a1.32285,1.32285,0,1,1,.04407,2.64534l-46.95475.78223a1.32285,1.32285,0,0,1-.04407-2.64534Z" transform="translate(-107.20664 -128.84754)" fill="#3f3d56"/><path d="M608.89566,290.53806l46.95475-.78223a1.32285,1.32285,0,0,1,.04407,2.64534l-46.95475.78223a1.32285,1.32285,0,0,1-.04407-2.64534Z" transform="translate(-107.20664 -128.84754)" fill="#3f3d56"/><path d="M631.224,260.88358c-9.31374.15516-16.77755,5.47176-16.67088,11.875l33.72806-.56188C648.17452,265.79345,640.53775,260.72842,631.224,260.88358Z" transform="translate(-107.20664 -128.84754)" fill="#3f3d56"/><path d="M636.41386,389.61354a8.14933,8.14933,0,0,1,4.94589,2.11341c.34849.2891.69141.59218,1.0353.89589a10.33034,10.33034,0,0,0,3.89692,2.54982c3.23184.88191,6.42224-1.67357,9.11517-4.28989l.92216.94849c-2.96056,2.87725-6.50869,5.67481-10.38559,4.61791a11.46391,11.46391,0,0,1-4.42461-2.835c-.33341-.29484-.66616-.58873-1.00385-.86929-1.1051-.91669-3.24-2.34305-5.138-1.6034a6.44192,6.44192,0,0,0-2.05951,1.58861,12.31293,12.31293,0,0,1-1.4295,1.2871,6.47841,6.47841,0,0,1-7.17883.21359,12.7955,12.7955,0,0,1-1.12388-.84242,4.68807,4.68807,0,0,0-2.12357-1.20916c-1.1241-.15764-2.14565.64493-3.22844,1.49342a6.8402,6.8402,0,0,1-3.743,1.85957c-.04776.00241-.09618.00418-.144.005-2.6363.04392-4.30818-2.59271-5.34225-4.59719l1.176-.60617c1.40525,2.72473,2.76,3.96706,4.24042,3.87715a5.81555,5.81555,0,0,0,2.99639-1.579c1.25176-.98212,2.54755-1.9976,4.22722-1.763a5.72061,5.72061,0,0,1,2.77362,1.491,11.65548,11.65548,0,0,0,1.00619.75749,5.19806,5.19806,0,0,0,5.68469-.169,11.16589,11.16589,0,0,0,1.27346-1.15335,7.51531,7.51531,0,0,1,2.51388-1.88593A4.34872,4.34872,0,0,1,636.41386,389.61354Z" transform="translate(-107.20664 -128.84754)" fill="#6c63ff"/><rect x="524.13395" width="1.37481" height="131.98203" fill="#3f3d56"/><path d="M1047.62723,357.51779c-8.38218,30.98558-37.093,50.17572-37.093,50.17572s-15.12066-31.04739-6.73848-62.033,37.093-50.17573,37.093-50.17573S1056.00942,326.53221,1047.62723,357.51779Z" transform="translate(-107.20664 -128.84754)" fill="#6c63ff"/><path d="M971.37277,357.51779c8.38218,30.98558,37.093,50.17572,37.093,50.17572s15.12066-31.04739,6.73848-62.033-37.093-50.17573-37.093-50.17573S962.99058,326.53221,971.37277,357.51779Z" transform="translate(-107.20664 -128.84754)" fill="#6c63ff"/><path d="M983.68979,350.85866C1006.69062,373.249,1009.5,407.66825,1009.5,407.66825s-34.48232-1.88275-57.48315-24.27313-25.81021-56.80959-25.81021-56.80959S960.689,328.46828,983.68979,350.85866Z" transform="translate(-107.20664 -128.84754)" fill="#3f3d56"/><path d="M1035.31021,350.85866C1012.30938,373.249,1009.5,407.66825,1009.5,407.66825s34.48232-1.88275,57.48315-24.27313,25.81021-56.80959,25.81021-56.80959S1058.311,328.46828,1035.31021,350.85866Z" transform="translate(-107.20664 -128.84754)" fill="#3f3d56"/><path d="M228.62723,719.51779c-8.38218,30.98558-37.093,50.17572-37.093,50.17572s-15.12066-31.04739-6.73848-62.033,37.093-50.17573,37.093-50.17573S237.00942,688.53221,228.62723,719.51779Z" transform="translate(-107.20664 -128.84754)" fill="#6c63ff"/><path d="M152.37277,719.51779c8.38218,30.98558,37.093,50.17572,37.093,50.17572s15.12066-31.04739,6.73848-62.033-37.093-50.17573-37.093-50.17573S143.99058,688.53221,152.37277,719.51779Z" transform="translate(-107.20664 -128.84754)" fill="#6c63ff"/><path d="M164.68979,712.85866C187.69062,735.249,190.5,769.66825,190.5,769.66825s-34.48232-1.88275-57.48315-24.27313-25.81021-56.80959-25.81021-56.80959S141.689,690.46828,164.68979,712.85866Z" transform="translate(-107.20664 -128.84754)" fill="#3f3d56"/><path d="M216.31021,712.85866C193.30938,735.249,190.5,769.66825,190.5,769.66825s34.48232-1.88275,57.48315-24.27313,25.81021-56.80959,25.81021-56.80959S239.311,690.46828,216.31021,712.85866Z" transform="translate(-107.20664 -128.84754)" fill="#3f3d56"/><circle cx="670.34203" cy="285.18876" r="19.23438" fill="#2f2e41"/><path d="M756.9404,405.793A19.234,19.234,0,0,1,774.114,386.67232a19.23441,19.23441,0,1,0,0,38.24135A19.234,19.234,0,0,1,756.9404,405.793Z" transform="translate(-107.20664 -128.84754)" fill="#2f2e41"/><path d="M758.31428,414.0363s-2.98726,13.73885,15.67993,19.23439Z" transform="translate(-107.20664 -128.84754)" fill="#6c63ff"/><circle cx="678.29697" cy="351.26505" r="64.57257" fill="#2f2e41"/><path d="M821.17117,698.57244c-.83.69-1.66,1.37-2.5,2.04a313.73111,313.73111,0,0,1-55.56,36.03c-1.17.59-2.34,1.18-3.52,1.76-1.87.92-3.76,1.82-5.65,2.7l-33.1-11.03.38-7.93v-.03l1.44-30.24.49-10.34Z" transform="translate(-107.20664 -128.84754)" fill="#a0616a"/><path d="M759.59115,738.40246c-1.87.92-3.76,1.82-5.65,2.7a306.938,306.938,0,0,1-39.91,15.37,2.22371,2.22371,0,0,1-.12-.62l6.93-33.87006.38.16Z" transform="translate(-107.20664 -128.84754)" fill="#2f2e41"/><circle cx="662.17842" cy="377.01184" r="42.76177" fill="#a0616a"/><path d="M804.05677,508.17083s6.93434,34.67171,19.6473,42.76178l-70.49914,83.2121-26.58164-25.42592,19.6473-34.67171s21.95875-12.713,15.02441-30.04881Z" transform="translate(-107.20664 -128.84754)" fill="#a0616a"/><path d="M887.72115,623.00243a320.87478,320.87478,0,0,1-43.72,54.76c-.71-15.5-2.25-28.28-5.27-32.06a.031.031,0,0,1-.02-.01l-36.97-11.55s8.09-76.28,27.74-79.74c0,0,2.85.57995,7.28,1.92,14.28,4.3,44.93994,16.42,49.35,41.99A141.92617,141.92617,0,0,1,887.72115,623.00243Z" transform="translate(-107.20664 -128.84754)" fill="#a0616a"/><path d="M746.27059,574.04708s-34.67171-1.15572-56.63046,26.58164-75.122,48.5404-75.122,48.5404L481.60988,701.17668s-24.2702-42.76177-39.2946-27.73737,27.73736,53.16329,47.38466,48.5404,138.68684-40.45033,138.68684-40.45033l94.76934-42.76178Z" transform="translate(-107.20664 -128.84754)" fill="#a0616a"/><path d="M838.73116,645.70244l-4.82,41.76q-6.21,5.73-12.74,11.11c-.83.69-1.66,1.37-2.5,2.04-33.37-10.23-85.66-9.09-96.01-8.74-1.18.03-1.82.06-1.82.06l-1.15-24.27c-11.09-3.69-14.73005-11.76-14.83-20.64-.17-16.1,11.36-34.84,11.36-34.84,2.07-2.07,17.54-31.4,20.74-37.48.37-.71.58-1.1.58-1.1l13.87-3.46s-.04.11-.12.31c-1.24,3.47-12.02,34.86,6.54,35.95,18.26,1.07995,57.98-50.2,63.45-57.39.41-.54.63-.83.63-.83l15.03,8.09c-.06.02-.12.03-.18.05-9.18005,2.55-17.68005,24.66-17.68005,24.66-23.97,42.24,18.58,64.18006,19.63,64.71A.031.031,0,0,0,838.73116,645.70244Z" transform="translate(-107.20664 -128.84754)" fill="#d0cde1"/><path d="M771.70821,455.66576c-22.76326,0-41.21653,10.76441-41.21653,24.043,0,5.9414,3.70925,11.37145,9.832,15.56639l7.93463-5.7492-2.15776,9.00681c.89532.41492,1.80951.8165,2.763,1.18764l11.85353-13.82916v16.98916a69.19156,69.19156,0,0,0,10.99107.87134c22.76327,0,41.21654-10.76441,41.21654-24.043S794.47148,455.66576,771.70821,455.66576Z" transform="translate(-107.20664 -128.84754)" fill="#2f2e41"/><circle cx="748.93123" cy="315.23757" r="19.23438" fill="#2f2e41"/><path d="M835.52961,435.84181a19.234,19.234,0,0,1,17.17355-19.12068,19.42935,19.42935,0,0,0-2.06082-.1137,19.2344,19.2344,0,1,0,2.06082,38.35505A19.234,19.234,0,0,1,835.52961,435.84181Z" transform="translate(-107.20664 -128.84754)" fill="#2f2e41"/><path d="M836.90349,444.08512s-2.98727,13.73884,15.67992,19.23438Z" transform="translate(-107.20664 -128.84754)" fill="#6c63ff"/><ellipse cx="706.67378" cy="373.54467" rx="3.33876" ry="7.5122" fill="#a0616a"/><path d="M445.388,531.45408l-50.67715,12.27814-.16511.03931-5.50879,4.98725-1.58554,1.43356-3.39909-.61589-6.01721-1.08759,4.19317-14.152.78622-26.99357-2.8828-16.51063,15.98648-11.00709S427.3049,477.99108,445.388,531.45408Z" transform="translate(-107.20664 -128.84754)" fill="#d0cde1"/><path d="M394.71082,543.73222c-.68664,1.465.75215.49794-.03408,2.00487l-7.33805,2.35866-3.2864,1.4807-6.01721-1.08759,4.19317-14.152.78622-26.99357-2.8828-16.51063,15.98648-11.00709S413.27609,504.12505,394.71082,543.73222Z" transform="translate(-107.20664 -128.84754)" opacity="0.1"/><path d="M505.14073,492.6672s-66.56667,30.92467-93.56024,35.642-24.63491,31.71089-24.63491,31.71089L538.162,536.43348S532.92052,512.06064,505.14073,492.6672Z" transform="translate(-107.20664 -128.84754)" fill="#d0cde1"/><path d="M376.72471,487.42573s11.53123,28.04187-1.31037,62.89764l14.93819,6.81391,5.76562-6.81391.131-.65518-15.85545-1.44141s13.10367-35.11785,2.35866-59.49068C382.7524,488.7361,380.39374,483.49463,376.72471,487.42573Z" transform="translate(-107.20664 -128.84754)" fill="#6c63ff"/><path d="M596.60438,695.25C537.63784,682.14635,482.73344,709.271,482.73344,709.271l-.14938-.13366-21.86479-19.52185-85.436-139.4231,20.83484.131c57.91824-34.5937,139.4231-29.87638,139.4231-29.87638C570.6591,560.28217,596.60438,695.25,596.60438,695.25Z" transform="translate(-107.20664 -128.84754)" fill="#3f3d56"/><path d="M482.58406,709.13729l-21.86479-19.52185-85.436-139.4231,20.83484.131S479.15876,659.99851,482.58406,709.13729Z" transform="translate(-107.20664 -128.84754)" opacity="0.1"/><ellipse cx="485.87832" cy="579.80664" rx="33.80748" ry="21.49003" transform="translate(-255.86806 39.11836) rotate(-17.05185)" fill="#d0cde1"/><circle cx="27.79336" cy="277.15246" r="19" fill="#3f3d56"/><circle cx="955.79336" cy="642.15246" r="19" fill="#3f3d56"/><circle cx="110.79336" cy="279.15246" r="15" fill="#6c63ff"/><circle cx="955.79336" cy="279.15246" r="15" fill="#6c63ff"/><circle cx="27.79336" cy="640.15246" r="15" fill="#6c63ff"/></svg>