<svg xmlns="http://www.w3.org/2000/svg" version="1.1" xmlns:xlink="http://www.w3.org/1999/xlink" xmlns:svgjs="http://svgjs.com/svgjs" width="500" height="560" preserveAspectRatio="none" viewBox="0 0 500 560"><g mask="url(&quot;#SvgjsMask1287&quot;)" fill="none"><rect width="500" height="560" x="0" y="0" fill="rgba(0, 0, 0, 1)"></rect><g transform="translate(-5, 168)" stroke-linecap="round"><path d="M12 251.07 L12 308.93" stroke-width="10.5" stroke="#3a7cc3"></path><path d="M26 62.12 L26 497.88" stroke-width="10.5" stroke="rgba(240, 241, 252, 1)"></path><path d="M40 190.22 L40 284.72" stroke-width="10.5" stroke="#3a7cc3"></path><path d="M40 300.47 L40 321.47" stroke-width="10.5" stroke="rgba(240, 241, 252, 1)"></path><path d="M40 337.22 L40 369.78" stroke-width="10.5" stroke="rgba(255, 181, 0, 1)"></path><path d="M54 107.04 L54 452.96" stroke-width="10.5" stroke="rgba(255, 181, 0, 1)"></path><path d="M68 186.35 L68 280.85" stroke-width="10.5" stroke="rgba(240, 241, 252, 1)"></path><path d="M68 296.6 L68 307.1" stroke-width="10.5" stroke="#3a7cc3"></path><path d="M68 322.85 L68 373.65" stroke-width="10.5" stroke="rgba(240, 241, 252, 1)"></path><path d="M82 78.07 L82 309.07" stroke-width="10.5" stroke="#3a7cc3"></path><path d="M82 324.82 L82 481.93" stroke-width="10.5" stroke="#3a7cc3"></path><path d="M96 80.47 L96 321.97" stroke-width="10.5" stroke="rgba(255, 181, 0, 1)"></path><path d="M96 337.72 L96 432.22" stroke-width="10.5" stroke="rgba(255, 181, 0, 1)"></path><path d="M96 447.97 L96 479.52" stroke-width="10.5" stroke="rgba(255, 181, 0, 1)"></path><path d="M110 203.69 L110 235.19" stroke-width="10.5" stroke="#3a7cc3"></path><path d="M110 250.94 L110 313.94" stroke-width="10.5" stroke="#3a7cc3"></path><path d="M110 329.69 L110 356.31" stroke-width="10.5" stroke="rgba(240, 241, 252, 1)"></path><path d="M124 153.26 L124 163.76" stroke-width="10.5" stroke="rgba(240, 241, 252, 1)"></path><path d="M124 179.51 L124 406.74" stroke-width="10.5" stroke="rgba(240, 241, 252, 1)"></path><path d="M138 29.69 L138 428.69" stroke-width="10.5" stroke="#3a7cc3"></path><path d="M138 444.44 L138 475.94" stroke-width="10.5" stroke="#3a7cc3"></path><path d="M138 491.69 L138 530.31" stroke-width="10.5" stroke="#3a7cc3"></path><path d="M152 134.19 L152 218.19" stroke-width="10.5" stroke="rgba(240, 241, 252, 1)"></path><path d="M152 233.94 L152 425.81" stroke-width="10.5" stroke="#3a7cc3"></path><path d="M166 162.93 L166 278.43" stroke-width="10.5" stroke="rgba(240, 241, 252, 1)"></path><path d="M166 294.18 L166 325.68" stroke-width="10.5" stroke="rgba(255, 181, 0, 1)"></path><path d="M166 341.43 L166 397.07" stroke-width="10.5" stroke="rgba(240, 241, 252, 1)"></path><path d="M180 217.25 L180 269.75" stroke-width="10.5" stroke="rgba(255, 181, 0, 1)"></path><path d="M180 285.5 L180 306.5" stroke-width="10.5" stroke="rgba(255, 181, 0, 1)"></path><path d="M180 322.25 L180 342.75" stroke-width="10.5" stroke="#3a7cc3"></path><path d="M194 44.18 L194 254.18" stroke-width="10.5" stroke="rgba(255, 181, 0, 1)"></path><path d="M194 269.93 L194 515.82" stroke-width="10.5" stroke="#3a7cc3"></path><path d="M208 225.14 L208 267.14" stroke-width="10.5" stroke="rgba(255, 181, 0, 1)"></path><path d="M208 282.89 L208 303.89" stroke-width="10.5" stroke="rgba(255, 181, 0, 1)"></path><path d="M208 319.64 L208 334.86" stroke-width="10.5" stroke="rgba(255, 181, 0, 1)"></path><path d="M222 21.119999999999997 L222 168.12" stroke-width="10.5" stroke="#3a7cc3"></path><path d="M222 183.87 L222 383.37" stroke-width="10.5" stroke="rgba(240, 241, 252, 1)"></path><path d="M222 399.12 L222 538.88" stroke-width="10.5" stroke="#3a7cc3"></path><path d="M236 64.12 L236 295.12" stroke-width="10.5" stroke="#3a7cc3"></path><path d="M236 310.87 L236 373.87" stroke-width="10.5" stroke="#3a7cc3"></path><path d="M236 389.62 L236 495.88" stroke-width="10.5" stroke="#3a7cc3"></path><path d="M250 217.16 L250 238.16" stroke-width="10.5" stroke="#3a7cc3"></path><path d="M250 253.91 L250 274.90999999999997" stroke-width="10.5" stroke="#3a7cc3"></path><path d="M250 290.65999999999997 L250 342.85" stroke-width="10.5" stroke="#3a7cc3"></path><path d="M264 155.9 L264 218.9" stroke-width="10.5" stroke="#3a7cc3"></path><path d="M264 234.65 L264 297.65" stroke-width="10.5" stroke="#3a7cc3"></path><path d="M264 313.4 L264 404.1" stroke-width="10.5" stroke="rgba(240, 241, 252, 1)"></path><path d="M278 251.18 L278 308.82" stroke-width="10.5" stroke="#3a7cc3"></path><path d="M292 118.9 L292 213.4" stroke-width="10.5" stroke="#3a7cc3"></path><path d="M292 229.15 L292 344.65" stroke-width="10.5" stroke="#3a7cc3"></path><path d="M292 360.4 L292 441.1" stroke-width="10.5" stroke="rgba(240, 241, 252, 1)"></path><path d="M306 95.88 L306 337.38" stroke-width="10.5" stroke="rgba(240, 241, 252, 1)"></path><path d="M306 353.13 L306 464.13" stroke-width="10.5" stroke="rgba(255, 181, 0, 1)"></path><path d="M320 188.41 L320 261.90999999999997" stroke-width="10.5" stroke="rgba(255, 181, 0, 1)"></path><path d="M320 277.65999999999997 L320 298.65999999999997" stroke-width="10.5" stroke="#3a7cc3"></path><path d="M320 314.40999999999997 L320 371.6" stroke-width="10.5" stroke="rgba(255, 181, 0, 1)"></path><path d="M334 217.93 L334 342.07" stroke-width="10.5" stroke="rgba(240, 241, 252, 1)"></path><path d="M348 108.07 L348 234.07" stroke-width="10.5" stroke="rgba(240, 241, 252, 1)"></path><path d="M348 249.82 L348 291.82" stroke-width="10.5" stroke="rgba(255, 181, 0, 1)"></path><path d="M348 307.57 L348 451.93" stroke-width="10.5" stroke="#3a7cc3"></path><path d="M362 131.03 L362 215.03" stroke-width="10.5" stroke="rgba(255, 181, 0, 1)"></path><path d="M362 230.78 L362 346.28" stroke-width="10.5" stroke="rgba(255, 181, 0, 1)"></path><path d="M362 362.03 L362 428.97" stroke-width="10.5" stroke="#3a7cc3"></path><path d="M376 141.48 L376 162.48" stroke-width="10.5" stroke="#3a7cc3"></path><path d="M376 178.23 L376 325.23" stroke-width="10.5" stroke="#3a7cc3"></path><path d="M376 340.98 L376 418.52" stroke-width="10.5" stroke="#3a7cc3"></path><path d="M390 141.13 L390 214.63" stroke-width="10.5" stroke="rgba(240, 241, 252, 1)"></path><path d="M390 230.38 L390 282.88" stroke-width="10.5" stroke="#3a7cc3"></path><path d="M390 298.63 L390 418.87" stroke-width="10.5" stroke="rgba(240, 241, 252, 1)"></path><path d="M404 188.01 L404 371.99" stroke-width="10.5" stroke="rgba(240, 241, 252, 1)"></path><path d="M418 249.53 L418 310.48" stroke-width="10.5" stroke="rgba(240, 241, 252, 1)"></path><path d="M432 39.28 L432 520.72" stroke-width="10.5" stroke="rgba(255, 181, 0, 1)"></path><path d="M446 152.75 L446 341.75" stroke-width="10.5" stroke="#3a7cc3"></path><path d="M446 357.5 L446 368" stroke-width="10.5" stroke="rgba(255, 181, 0, 1)"></path><path d="M446 383.75 L446 407.25" stroke-width="10.5" stroke="rgba(240, 241, 252, 1)"></path><path d="M460 75.29 L460 358.79" stroke-width="10.5" stroke="#3a7cc3"></path><path d="M460 374.54 L460 437.54" stroke-width="10.5" stroke="rgba(240, 241, 252, 1)"></path><path d="M460 453.29 L460 484.71" stroke-width="10.5" stroke="#3a7cc3"></path><path d="M474 194.81 L474 215.81" stroke-width="10.5" stroke="rgba(240, 241, 252, 1)"></path><path d="M474 231.56 L474 365.19" stroke-width="10.5" stroke="#3a7cc3"></path><path d="M488 14.13 L488 545.87" stroke-width="10.5" stroke="rgba(240, 241, 252, 1)"></path></g></g><defs><mask id="SvgjsMask1287"><rect width="500" height="560" fill="#ffffff"></rect></mask></defs></svg>