<svg xmlns="http://www.w3.org/2000/svg" version="1.1" xmlns:xlink="http://www.w3.org/1999/xlink" xmlns:svgjs="http://svgjs.com/svgjs" width="800" height="560" preserveAspectRatio="none" viewBox="0 0 800 560"><g mask="url(&quot;#SvgjsMask1206&quot;)" fill="none"><rect width="800" height="560" x="0" y="0" fill="rgba(0, 0, 0, 1)"></rect><path d="M 0,83 C 32,158.6 96,439.8 160,461 C 224,482.2 256,198.4 320,189 C 384,179.6 416,438.4 480,414 C 544,389.6 576,66.2 640,67 C 704,67.8 768,347.8 800,418L800 560L0 560z" fill="rgba(52, 24, 126, 1)"></path><path d="M 0,241 C 53.4,304.6 160.2,565.8 267,559 C 373.8,552.2 427.4,233.2 534,207 C 640.6,180.8 746.8,383.8 800,428L800 560L0 560z" fill="#2264ab"></path></g><defs><mask id="SvgjsMask1206"><rect width="800" height="560" fill="#ffffff"></rect></mask></defs></svg>