<svg xmlns="http://www.w3.org/2000/svg" width="64" height="64" fill="none" viewBox="0 0 64 64"><rect width="48.484" height="47.302" x="5.448" y="10.402" fill="#AFB8E3" stroke="#000" rx="2.5"/><rect width="59.051" height="12.236" y="2.174" fill="#2B4DFE" rx="5"/><ellipse cx="49.979" cy="50.315" fill="#4A558E" rx="14.021" ry="13.685"/><ellipse cx="49.979" cy="50.315" fill="#C4C4C4" rx="12.371" ry="12.075"/><ellipse cx="49.814" cy="50.154" fill="#fff" rx="9.897" ry="9.66"/><path fill="#CA3F3F" d="M54.2162 47.0111L49.0167 48.6524L49.9902 50.814L54.2162 47.0111Z"/><ellipse fill="#CA3F3F" rx="1.264" ry="1.263" transform="matrix(-0.431062 -0.902322 -0.854372 0.519661 49.4952 49.7644)"/><ellipse fill="#000" rx="1.227" ry="1.073" transform="matrix(0.99739 0.0722055 -0.0946872 0.995507 49.9314 44.2259)"/><ellipse fill="#000" rx="1.227" ry="1.073" transform="matrix(0.99739 0.0722055 -0.0946872 0.995507 56.0762 52.3793)"/><ellipse fill="#000" rx="1.227" ry="1.073" transform="matrix(0.99739 0.0722055 -0.0946872 0.995507 52.6197 56.403)"/><ellipse fill="#000" rx="1.227" ry="1.073" transform="matrix(0.99739 0.0722055 -0.0946872 0.995507 46.7629 56.403)"/><ellipse fill="#000" rx="1.227" ry="1.073" transform="matrix(0.99739 0.0722055 -0.0946872 0.995507 43.8826 52.3793)"/><ellipse fill="#000" rx="1.227" ry="1.073" transform="matrix(0.99739 0.0722055 -0.0946872 0.995507 44.0746 46.7672)"/><path fill="#fff" stroke="#000" d="M43.3763 8.29184C43.3763 9.78279 42.1346 11.012 40.5773 11.012C39.02 11.012 37.7784 9.78279 37.7784 8.29184C37.7784 6.80089 39.02 5.57172 40.5773 5.57172C42.1346 5.57172 43.3763 6.80089 43.3763 8.29184Z"/><path fill="#fff" stroke="#000" d="M18.634 8.29184C18.634 9.78279 17.3923 11.012 15.835 11.012C14.2777 11.012 13.0361 9.78279 13.0361 8.29184C13.0361 6.80089 14.2777 5.57172 15.835 5.57172C17.3923 5.57172 18.634 6.80089 18.634 8.29184Z"/><rect width="6.598" height="6.44" x="12.536" y="18.596" fill="#533FCA"/><rect width="6.598" height="6.44" x="12.536" y="43.069" fill="#fff"/><rect width="6.598" height="6.44" x="25.072" y="18.596" fill="#fff"/><rect width="6.598" height="6.44" x="24.412" y="30.833" fill="#fff"/><rect width="6.598" height="6.44" x="24.412" y="43.069" fill="#fff"/><rect width="6.598" height="6.44" x="37.278" y="30.189" fill="#fff"/><rect width="6.598" height="6.44" x="37.608" y="18.596" fill="#fff"/><rect width="6.598" height="6.44" x="12.536" y="30.833" fill="#fff"/><path fill="#4A4040" d="M39 1.5C39 0.671573 39.6716 0 40.5 0V0C41.3284 0 42 0.671573 42 1.5V6.95283C42 7.78126 41.3284 8.45283 40.5 8.45283V8.45283C39.6716 8.45283 39 7.78126 39 6.95283V1.5Z"/><rect width="3" height="8.453" x="14.25" fill="#4A4040" rx="1.5"/></svg>