<svg width="64" height="64" viewBox="0 0 64 64" fill="none" xmlns="http://www.w3.org/2000/svg">
<rect x="5.44849" y="10.4019" width="48.4845" height="47.3019" rx="2.5" fill="#AFB8E3" stroke="black"/>
<rect y="2.17358" width="59.0515" height="12.2365" rx="5" fill="#2B4DFE"/>
<ellipse cx="49.9794" cy="50.3145" rx="14.0206" ry="13.6855" fill="#4A558E"/>
<ellipse cx="49.9794" cy="50.3145" rx="12.3711" ry="12.0755" fill="#C4C4C4"/>
<ellipse cx="49.8144" cy="50.1535" rx="9.89691" ry="9.66038" fill="white"/>
<path d="M54.2162 47.0111L49.0167 48.6524L49.9902 50.814L54.2162 47.0111Z" fill="#CA3F3F"/>
<ellipse rx="1.26447" ry="1.26269" transform="matrix(-0.431062 -0.902322 -0.854372 0.519661 49.4952 49.7644)" fill="#CA3F3F"/>
<ellipse rx="1.22748" ry="1.07291" transform="matrix(0.99739 0.0722055 -0.0946872 0.995507 49.9314 44.2259)" fill="black"/>
<ellipse rx="1.22748" ry="1.07291" transform="matrix(0.99739 0.0722055 -0.0946872 0.995507 56.0762 52.3793)" fill="black"/>
<ellipse rx="1.22748" ry="1.07291" transform="matrix(0.99739 0.0722055 -0.0946872 0.995507 52.6197 56.403)" fill="black"/>
<ellipse rx="1.22748" ry="1.07291" transform="matrix(0.99739 0.0722055 -0.0946872 0.995507 46.7629 56.403)" fill="black"/>
<ellipse rx="1.22748" ry="1.07291" transform="matrix(0.99739 0.0722055 -0.0946872 0.995507 43.8826 52.3793)" fill="black"/>
<ellipse rx="1.22748" ry="1.07291" transform="matrix(0.99739 0.0722055 -0.0946872 0.995507 44.0746 46.7672)" fill="black"/>
<path d="M43.3763 8.29184C43.3763 9.78279 42.1346 11.012 40.5773 11.012C39.02 11.012 37.7784 9.78279 37.7784 8.29184C37.7784 6.80089 39.02 5.57172 40.5773 5.57172C42.1346 5.57172 43.3763 6.80089 43.3763 8.29184Z" fill="white" stroke="black"/>
<path d="M18.634 8.29184C18.634 9.78279 17.3923 11.012 15.835 11.012C14.2777 11.012 13.0361 9.78279 13.0361 8.29184C13.0361 6.80089 14.2777 5.57172 15.835 5.57172C17.3923 5.57172 18.634 6.80089 18.634 8.29184Z" fill="white" stroke="black"/>
<rect x="12.5361" y="18.5962" width="6.59794" height="6.44025" fill="#533FCA"/>
<rect x="12.5361" y="43.0692" width="6.59794" height="6.44025" fill="white"/>
<rect x="25.0721" y="18.5962" width="6.59794" height="6.44025" fill="white"/>
<rect x="24.4124" y="30.8327" width="6.59794" height="6.44025" fill="white"/>
<rect x="24.4124" y="43.0692" width="6.59794" height="6.44025" fill="white"/>
<rect x="37.2784" y="30.1887" width="6.59794" height="6.44025" fill="white"/>
<rect x="37.6082" y="18.5962" width="6.59794" height="6.44025" fill="white"/>
<rect x="12.5361" y="30.8327" width="6.59794" height="6.44025" fill="white"/>
<path d="M39 1.5C39 0.671573 39.6716 0 40.5 0V0C41.3284 0 42 0.671573 42 1.5V6.95283C42 7.78126 41.3284 8.45283 40.5 8.45283V8.45283C39.6716 8.45283 39 7.78126 39 6.95283V1.5Z" fill="#4A4040"/>
<rect x="14.25" width="3" height="8.45283" rx="1.5" fill="#4A4040"/>
</svg>
